G04*
G04 #@! TF.GenerationSoftware,Altium Limited,Altium Designer,25.7.1 (20)*
G04*
G04 Layer_Physical_Order=1*
G04 Layer_Color=255*
%FSLAX44Y44*%
%MOMM*%
G71*
G04*
G04 #@! TF.SameCoordinates,265DE244-54D5-4CCD-A973-AF3357FD315F*
G04*
G04*
G04 #@! TF.FilePolarity,Positive*
G04*
G01*
G75*
%ADD16R,0.7000X0.9000*%
%ADD17R,2.0000X1.2000*%
%ADD18R,0.9500X0.8500*%
%ADD19R,0.8000X0.8000*%
%ADD20R,0.7500X1.0000*%
G04:AMPARAMS|DCode=21|XSize=0.76mm|YSize=0.6604mm|CornerRadius=0.0825mm|HoleSize=0mm|Usage=FLASHONLY|Rotation=180.000|XOffset=0mm|YOffset=0mm|HoleType=Round|Shape=RoundedRectangle|*
%AMROUNDEDRECTD21*
21,1,0.7600,0.4953,0,0,180.0*
21,1,0.5949,0.6604,0,0,180.0*
1,1,0.1651,-0.2975,0.2477*
1,1,0.1651,0.2975,0.2477*
1,1,0.1651,0.2975,-0.2477*
1,1,0.1651,-0.2975,-0.2477*
%
%ADD21ROUNDEDRECTD21*%
G04:AMPARAMS|DCode=22|XSize=0.76mm|YSize=0.6604mm|CornerRadius=0.0825mm|HoleSize=0mm|Usage=FLASHONLY|Rotation=270.000|XOffset=0mm|YOffset=0mm|HoleType=Round|Shape=RoundedRectangle|*
%AMROUNDEDRECTD22*
21,1,0.7600,0.4953,0,0,270.0*
21,1,0.5949,0.6604,0,0,270.0*
1,1,0.1651,-0.2477,-0.2975*
1,1,0.1651,-0.2477,0.2975*
1,1,0.1651,0.2477,0.2975*
1,1,0.1651,0.2477,-0.2975*
%
%ADD22ROUNDEDRECTD22*%
%ADD23R,0.9500X0.9500*%
%ADD24R,0.5000X0.3500*%
%ADD25R,1.0000X0.9000*%
%ADD26R,0.9500X0.9500*%
%ADD27O,0.3500X2.1000*%
%ADD28R,0.6500X1.7500*%
%ADD29R,0.9000X1.0000*%
%ADD30R,1.6000X0.6000*%
%ADD31O,1.7000X0.6000*%
%ADD32R,0.8000X0.8000*%
G04:AMPARAMS|DCode=33|XSize=2mm|YSize=3.4mm|CornerRadius=0mm|HoleSize=0mm|Usage=FLASHONLY|Rotation=270.000|XOffset=0mm|YOffset=0mm|HoleType=Round|Shape=Octagon|*
%AMOCTAGOND33*
4,1,8,1.7000,0.5000,1.7000,-0.5000,1.2000,-1.0000,-1.2000,-1.0000,-1.7000,-0.5000,-1.7000,0.5000,-1.2000,1.0000,1.2000,1.0000,1.7000,0.5000,0.0*
%
%ADD33OCTAGOND33*%

%ADD34R,2.0000X0.7000*%
%ADD35R,1.0000X0.7500*%
%ADD36R,1.0500X0.9000*%
%ADD55R,1.8400X1.8400*%
%ADD56C,1.8400*%
%ADD64C,0.6350*%
%ADD65C,1.2700*%
%ADD66C,0.3048*%
%ADD67C,0.3810*%
%ADD68C,0.3302*%
%ADD69C,0.7620*%
%ADD70C,1.4000*%
%ADD71C,1.8000*%
%ADD72R,1.8000X1.8000*%
%ADD73C,1.6000*%
%ADD74R,1.6000X1.6000*%
%ADD75R,1.4000X1.4000*%
%ADD76C,0.6000*%
D16*
X1686000Y315000D02*
D03*
X1700000D02*
D03*
X1677640Y604520D02*
D03*
X1691640D02*
D03*
X1600500Y705000D02*
D03*
X1555100Y662940D02*
D03*
X1614500Y705000D02*
D03*
Y690000D02*
D03*
Y677500D02*
D03*
X1600500D02*
D03*
X1569100Y662940D02*
D03*
X1600500Y690000D02*
D03*
D17*
X1641000Y541000D02*
D03*
X1604000Y519000D02*
D03*
Y541000D02*
D03*
X1641000Y519000D02*
D03*
D18*
X1662500Y541750D02*
D03*
Y528250D02*
D03*
X1582500Y531750D02*
D03*
Y518250D02*
D03*
D19*
X1696720Y583960D02*
D03*
Y568960D02*
D03*
X1727200Y535820D02*
D03*
Y520820D02*
D03*
D20*
X1666360Y584200D02*
D03*
X1681360D02*
D03*
X1500000Y540000D02*
D03*
X1515000D02*
D03*
D21*
X1607500Y787500D02*
D03*
Y801500D02*
D03*
D22*
X1606500Y787500D02*
D03*
X1592500D02*
D03*
X1640220Y668020D02*
D03*
X1626220D02*
D03*
D23*
X1584960Y751640D02*
D03*
Y739140D02*
D03*
X1554480Y692050D02*
D03*
Y679550D02*
D03*
D24*
X1585000Y691000D02*
D03*
X1569000Y684500D02*
D03*
X1585000D02*
D03*
X1569000Y691000D02*
D03*
Y704000D02*
D03*
Y697500D02*
D03*
X1585000Y704000D02*
D03*
Y697500D02*
D03*
D25*
X1554480Y705320D02*
D03*
Y718820D02*
D03*
X1652500Y450750D02*
D03*
X1572500D02*
D03*
X1652500Y464250D02*
D03*
X1572500D02*
D03*
D26*
X1637500Y567500D02*
D03*
X1625000D02*
D03*
D27*
X1630750Y646500D02*
D03*
X1598250Y588500D02*
D03*
X1624250Y646500D02*
D03*
Y588500D02*
D03*
X1617750Y646500D02*
D03*
X1656750D02*
D03*
X1650250D02*
D03*
X1643750D02*
D03*
X1637250D02*
D03*
X1611250D02*
D03*
X1604750D02*
D03*
X1598250D02*
D03*
X1656750Y588500D02*
D03*
X1650250D02*
D03*
X1643750D02*
D03*
X1637250D02*
D03*
X1630750D02*
D03*
X1617750D02*
D03*
X1611250D02*
D03*
X1604750D02*
D03*
D28*
X1738850Y287000D02*
D03*
X1726150D02*
D03*
X1713450D02*
D03*
X1751550D02*
D03*
X1713450Y343000D02*
D03*
X1726150D02*
D03*
X1738850D02*
D03*
X1751550D02*
D03*
D29*
X1665000Y480000D02*
D03*
X1651500D02*
D03*
D30*
X1630000Y450000D02*
D03*
Y480000D02*
D03*
D31*
X1607000Y730950D02*
D03*
X1678000Y756350D02*
D03*
Y769050D02*
D03*
X1607000Y743650D02*
D03*
Y769050D02*
D03*
Y756350D02*
D03*
X1678000Y743650D02*
D03*
Y730950D02*
D03*
D32*
X1545000Y540000D02*
D03*
X1530000D02*
D03*
D33*
X1601000Y465000D02*
D03*
D34*
X1628000D02*
D03*
D35*
X1727200Y505340D02*
D03*
Y490340D02*
D03*
D36*
X1672500Y690500D02*
D03*
Y704500D02*
D03*
D55*
X1502500Y808700D02*
D03*
D56*
Y783300D02*
D03*
Y757900D02*
D03*
Y732500D02*
D03*
Y707100D02*
D03*
Y681700D02*
D03*
D64*
X1726225Y401145D02*
X1727200Y402120D01*
X1726225Y343075D02*
Y401145D01*
X1726150Y343000D02*
X1726225Y343075D01*
X1727435Y490000D02*
X1728750D01*
X1727200Y489765D02*
X1727435Y490000D01*
X1727200Y452120D02*
Y489765D01*
Y505340D02*
Y520820D01*
X1595066Y726855D02*
X1598416Y723505D01*
X1592941Y728980D02*
X1595066Y726855D01*
X1730000Y535000D02*
X1741500D01*
X1662500Y516960D02*
Y528250D01*
X1726150Y272000D02*
Y287000D01*
X1713450Y272000D02*
Y287000D01*
X1661160Y515620D02*
X1662500Y516960D01*
X1738850Y272000D02*
Y287000D01*
X1725930Y271780D02*
X1726150Y272000D01*
X1738630Y271780D02*
X1738850Y272000D01*
X1713230Y271780D02*
X1713450Y272000D01*
X1660525Y516255D02*
X1661160Y515620D01*
X1643745Y516255D02*
X1660525D01*
X1641000Y519000D02*
X1643745Y516255D01*
X1644650Y440000D02*
X1652500D01*
X1634650Y450000D02*
X1644650Y440000D01*
X1652500D02*
Y450750D01*
X1630000Y450000D02*
X1634650D01*
X1582420Y543560D02*
X1584980Y541000D01*
X1582420Y543560D02*
X1582500Y543480D01*
X1584980Y541000D02*
X1604000D01*
X1582500Y531750D02*
Y543480D01*
X1572500Y437500D02*
Y450750D01*
X1678000Y756350D02*
X1683150D01*
X1678000D02*
Y769050D01*
X1683150Y756350D02*
X1711960Y727540D01*
X1706880Y617220D02*
X1711960Y612140D01*
X1640930Y695870D02*
X1645920Y690880D01*
X1635670Y695870D02*
X1640930D01*
X1630150D02*
X1635670D01*
X1626220Y686420D02*
X1635670Y695870D01*
X1626220Y668020D02*
Y686420D01*
X1711960Y604520D02*
Y612140D01*
Y727540D01*
Y561340D02*
Y604520D01*
X1691640D02*
X1711960D01*
X1684020Y533400D02*
Y558800D01*
Y527704D02*
Y533400D01*
X1711960Y561340D01*
X1651500Y495184D02*
X1684020Y527704D01*
X1651500Y480000D02*
Y495184D01*
X1630000Y480000D02*
X1651500D01*
X1601850Y743650D02*
X1607000D01*
X1599854Y745646D02*
X1601850Y743650D01*
X1591815Y750065D02*
X1596234Y745646D01*
X1599854D01*
X1619370Y695870D02*
X1630150D01*
X1598416Y723505D02*
X1602515D01*
X1630150Y695870D01*
X1586535Y750065D02*
X1591815D01*
X1584960Y751640D02*
X1586535Y750065D01*
X1581250Y728980D02*
X1592941D01*
X1556435Y704165D02*
X1581250Y728980D01*
X1614500Y691000D02*
X1619370Y695870D01*
X1554480Y692050D02*
Y705320D01*
X1544820Y692550D02*
X1556435Y704165D01*
X1516611Y692550D02*
X1544320D01*
X1505761Y681700D02*
X1516611Y692550D01*
X1502500Y681700D02*
X1505761D01*
X1662125Y541375D02*
X1662500Y541750D01*
X1641375Y541375D02*
X1662125D01*
X1641000Y541000D02*
X1641375Y541375D01*
X1582500Y518250D02*
X1582875Y518625D01*
X1603625D01*
X1604000Y519000D01*
X1726150Y343000D02*
X1738850D01*
X1751550D01*
X1713450D02*
X1726150D01*
D65*
X1613100Y358140D02*
X1706449Y451489D01*
X1726569D02*
X1727200Y452120D01*
X1706449Y451489D02*
X1726569D01*
X1522500Y415000D02*
X1580010Y357490D01*
X1612450D01*
X1522500Y465000D02*
X1560000D01*
D66*
X1554480Y718820D02*
Y731520D01*
X1595706Y728550D02*
Y746174D01*
X1596234Y725687D02*
Y728022D01*
X1595706Y728550D02*
X1596234Y728022D01*
X1607000Y769050D02*
X1607500Y769550D01*
Y787500D01*
X1502500Y757900D02*
X1518920Y741480D01*
Y711200D02*
Y741480D01*
X1665675Y465385D02*
X1666240Y464820D01*
X1665675Y465385D02*
Y479325D01*
X1665000Y480000D02*
X1665675Y479325D01*
X1595120Y715481D02*
X1598524Y712077D01*
Y706976D02*
Y712077D01*
X1595120Y715481D02*
Y716280D01*
X1594000Y697500D02*
X1600500Y704000D01*
X1598524Y706976D02*
X1600500Y705000D01*
Y704000D02*
Y705000D01*
X1585000Y697500D02*
X1594000D01*
X1686560Y568960D02*
X1696720D01*
X1637500Y567500D02*
X1649121D01*
X1650201Y566420D02*
X1651000D01*
X1649121Y567500D02*
X1650201Y566420D01*
X1635760Y677381D02*
Y678180D01*
X1638442Y669798D02*
Y674699D01*
X1635760Y677381D02*
X1638442Y674699D01*
X1632655Y714305D02*
X1633220Y713740D01*
X1629145Y714305D02*
X1632655D01*
X1640220Y667522D02*
Y668020D01*
X1638442Y669798D02*
X1640220Y668020D01*
X1638442Y665744D02*
X1640220Y667522D01*
X1637944Y665744D02*
X1638442D01*
X1630750Y658550D02*
X1637944Y665744D01*
X1630750Y646500D02*
Y658550D01*
X1619721Y802640D02*
X1620520D01*
X1607500Y801500D02*
X1618581D01*
X1619721Y802640D01*
X1607000Y730950D02*
X1612500D01*
X1584960Y718820D02*
X1584980Y718800D01*
X1612500Y730950D02*
X1629145Y714305D01*
X1584980Y704020D02*
Y718800D01*
X1584734Y703774D02*
X1584980Y704020D01*
X1581734Y735914D02*
X1584960Y739140D01*
X1559673Y735914D02*
X1581734D01*
X1555279Y731520D02*
X1559673Y735914D01*
X1554480Y731520D02*
X1555279D01*
X1582346Y703774D02*
X1584734D01*
X1576072Y697500D02*
X1582346Y703774D01*
X1569000Y697500D02*
X1576072D01*
X1553794Y676324D02*
X1557020Y679550D01*
X1598041Y581660D02*
X1598250Y581869D01*
Y588500D01*
X1584960Y581660D02*
X1598041D01*
X1553794Y672414D02*
Y676324D01*
X1544320Y662940D02*
X1555100D01*
X1544320D02*
X1553794Y672414D01*
X1546860Y528320D02*
Y529119D01*
X1545000Y530979D02*
X1546860Y529119D01*
X1545000Y530979D02*
Y540000D01*
X1626220Y667522D02*
Y668020D01*
X1624250Y646500D02*
Y665552D01*
X1626220Y667522D01*
X1614500Y691000D02*
Y705000D01*
X1592500Y759180D02*
Y787500D01*
X1584960Y751640D02*
X1592500Y759180D01*
X1614500Y690000D02*
Y691000D01*
X1568774Y690774D02*
X1569000Y691000D01*
X1567665Y690415D02*
X1568024Y690774D01*
X1614500Y676500D02*
Y677500D01*
Y690000D01*
X1568024Y690774D02*
X1568774D01*
X1556115Y690415D02*
X1567665D01*
X1554480Y692050D02*
X1556115Y690415D01*
X1610613Y667387D02*
X1617750Y660250D01*
X1609613Y667387D02*
X1610613D01*
X1617750Y646500D02*
Y660250D01*
X1600500Y676500D02*
Y677500D01*
Y676500D02*
X1609613Y667387D01*
X1617750Y632690D02*
X1623060Y627380D01*
X1617750Y632690D02*
Y646500D01*
X1585000Y684500D02*
X1585750D01*
X1590273Y679655D02*
X1592428Y677500D01*
X1600500D01*
X1585750Y684500D02*
X1590273Y679977D01*
Y679655D02*
Y679977D01*
X1569000Y684500D02*
X1569050Y684450D01*
X1569100Y662940D02*
X1579880D01*
X1569050Y668070D02*
X1569100Y668020D01*
X1569050Y668070D02*
Y684450D01*
X1666360Y584200D02*
Y585450D01*
X1663310Y588500D02*
X1666360Y585450D01*
X1656750Y588500D02*
X1663310D01*
X1681600Y583960D02*
X1696720D01*
X1681360Y584200D02*
X1681600Y583960D01*
X1686280Y315280D02*
Y390641D01*
X1681480Y395441D02*
Y396240D01*
Y395441D02*
X1686280Y390641D01*
X1686000Y315000D02*
X1686280Y315280D01*
X1657906Y572214D02*
X1663700Y566420D01*
X1652826Y572214D02*
X1657906D01*
X1650250Y574790D02*
X1652826Y572214D01*
X1650250Y574790D02*
Y588500D01*
X1751550Y287000D02*
Y292500D01*
X1729050Y315000D02*
X1751550Y292500D01*
X1700000Y315000D02*
X1729050D01*
X1612900Y627380D02*
Y628179D01*
X1611250Y629829D02*
X1612900Y628179D01*
X1611250Y629829D02*
Y646500D01*
X1626170Y756350D02*
X1656080Y726440D01*
Y661006D02*
Y726440D01*
X1607000Y756350D02*
X1626170D01*
X1660398Y715852D02*
X1671750Y704500D01*
X1660398Y715852D02*
Y740918D01*
X1663130Y743650D01*
X1611250Y646500D02*
Y655250D01*
X1598023Y668477D02*
X1611250Y655250D01*
X1592822Y668477D02*
X1598023D01*
X1579706Y681593D02*
X1592822Y668477D01*
X1579706Y681593D02*
Y687407D01*
X1581343Y689044D01*
X1582294D01*
X1584250Y691000D01*
X1585000D01*
X1622861Y602361D02*
X1662199D01*
X1664358Y604520D02*
X1677640D01*
X1617750Y597250D02*
X1622861Y602361D01*
X1662199D02*
X1664358Y604520D01*
X1669736Y623189D02*
X1684909D01*
X1699260Y637540D01*
X1651068Y619692D02*
X1666240D01*
X1669736Y623189D01*
X1617750Y588500D02*
Y597250D01*
X1650250Y655176D02*
X1656080Y661006D01*
X1660398Y659020D02*
Y667258D01*
X1656750Y655372D02*
X1660398Y659020D01*
X1656750Y646500D02*
Y655372D01*
X1650250Y646500D02*
Y655176D01*
X1660398Y667258D02*
X1666240Y673100D01*
X1643750Y627010D02*
X1651068Y619692D01*
X1643750Y627010D02*
Y646500D01*
X1699260Y637540D02*
Y723900D01*
X1599726Y690774D02*
X1600500Y690000D01*
X1585226Y690774D02*
X1599726D01*
X1585000Y691000D02*
X1585226Y690774D01*
X1671750Y704500D02*
X1672500D01*
X1663130Y743650D02*
X1678000D01*
X1666240Y684990D02*
X1671750Y690500D01*
X1666240Y673100D02*
Y684990D01*
X1671750Y690500D02*
X1672500D01*
X1678000Y730950D02*
X1692210D01*
X1699260Y723900D01*
X1515000Y540000D02*
X1530000D01*
X1600200Y622300D02*
X1604750Y626850D01*
X1525000Y622300D02*
X1600200D01*
X1500000Y597300D02*
X1525000Y622300D01*
X1604750Y626850D02*
Y646500D01*
X1500000Y622700D02*
X1523800Y646500D01*
X1598250D01*
X1604750Y561690D02*
Y588500D01*
Y561690D02*
X1623060Y543380D01*
Y534060D02*
Y543380D01*
X1608000Y519000D02*
X1623060Y534060D01*
X1604000Y519000D02*
X1608000D01*
X1637000Y541000D02*
X1641000D01*
X1611250Y566750D02*
X1637000Y541000D01*
X1611250Y566750D02*
Y588500D01*
D67*
X1670413Y617220D02*
X1706880D01*
X1660253Y607060D02*
X1670413Y617220D01*
X1556600Y704000D02*
X1569000D01*
X1556435Y704165D02*
X1556600Y704000D01*
X1535160Y607060D02*
X1660253D01*
X1500000Y571900D02*
X1535160Y607060D01*
X1500000Y540000D02*
Y571900D01*
D68*
X1682991Y559829D02*
X1684020Y558800D01*
X1631540Y559829D02*
X1682991D01*
X1624288Y568212D02*
X1625000Y567500D01*
X1624288Y568212D02*
Y588462D01*
X1625000Y567500D02*
X1629829Y562671D01*
X1624250Y588500D02*
X1624288Y588462D01*
X1629829Y561540D02*
X1631540Y559829D01*
X1629829Y561540D02*
Y562671D01*
D69*
X1628000Y465000D02*
X1649500D01*
X1575880D02*
X1601000D01*
X1575070Y464190D02*
X1575880Y465000D01*
X1573190Y464190D02*
X1575070D01*
X1572500Y463500D02*
X1573190Y464190D01*
X1571810D02*
X1572500Y463500D01*
X1560810Y464190D02*
X1571810D01*
X1560000Y465000D02*
X1560810Y464190D01*
D70*
X1638100Y358140D02*
D03*
D71*
X1500000Y648100D02*
D03*
Y622700D02*
D03*
Y597300D02*
D03*
D72*
Y571900D02*
D03*
D73*
X1727200Y452120D02*
D03*
X1522500Y465000D02*
D03*
D74*
X1727200Y402120D02*
D03*
X1522500Y415000D02*
D03*
D75*
X1613100Y358140D02*
D03*
D76*
X1554480Y731520D02*
D03*
X1518920Y711200D02*
D03*
X1666240Y464820D02*
D03*
X1595120Y716280D02*
D03*
X1686560Y568960D02*
D03*
X1651000Y566420D02*
D03*
X1741500Y535000D02*
D03*
X1635760Y678180D02*
D03*
X1633220Y713740D02*
D03*
X1738630Y271780D02*
D03*
X1713230D02*
D03*
X1725930D02*
D03*
X1661160Y515620D02*
D03*
X1652500Y440000D02*
D03*
X1620520Y802640D02*
D03*
X1584960Y718820D02*
D03*
Y581660D02*
D03*
X1582420Y543560D02*
D03*
X1572500Y437500D02*
D03*
X1544320Y662940D02*
D03*
X1546860Y528320D02*
D03*
X1706880Y617220D02*
D03*
X1645920Y690880D02*
D03*
X1623060Y627380D02*
D03*
X1579880Y662940D02*
D03*
X1681480Y396240D02*
D03*
X1663700Y566420D02*
D03*
X1612900Y627380D02*
D03*
M02*
