M48
;Layer_Color=9474304
;FILE_FORMAT=4:2
METRIC,LZ
;TYPE=PLATED
T01F00S00C0.30
T02F00S00C0.90
T03F00S00C1.10
T04F00S00C1.19
T05F00S00C1.27
%
T01
X017132Y002718
X017259
X017386
X016815Y003962
X016525Y0044
X016662Y004648
X016612Y005156
X016637Y005664
X01651
X016866Y00569
X017069Y006172
X016231Y006274
X016129
X016358Y006782
X016459Y006909
X016332Y007137
X015951Y007163
X017415Y00535
X015824Y005436
X01585Y005817
X015799Y006629
X015443
X015189Y007112
X015545Y007315
X01585Y007188
X015469Y005283
X015725Y004375
X016205Y008026
T02
X016131Y003581
X016381
T03
X017272Y004021
Y004521
X015225Y00465
Y00415
T04
X015025Y006817
Y007071
Y007325
Y007579
Y007833
Y008087
T05
X015Y005719
Y005973
Y006227
Y006481
M30
