G04*
G04 #@! TF.GenerationSoftware,Altium Limited,Altium Designer,25.7.1 (20)*
G04*
G04 Layer_Color=16711935*
%FSLAX44Y44*%
%MOMM*%
G71*
G04*
G04 #@! TF.SameCoordinates,265DE244-54D5-4CCD-A973-AF3357FD315F*
G04*
G04*
G04 #@! TF.FilePolarity,Positive*
G04*
G01*
G75*
%ADD15C,0.2540*%
%ADD77C,0.1000*%
%ADD78C,0.0500*%
D15*
X1465580Y259080D02*
X1772920D01*
X1465580Y835660D02*
X1772920D01*
Y259080D02*
Y835660D01*
X1465580Y259080D02*
Y835660D01*
D77*
X1608500Y604000D02*
G03*
X1608500Y604000I-5000J0D01*
G01*
X1721500Y304000D02*
G03*
X1721500Y304000I-5000J0D01*
G01*
X1629500Y768000D02*
G03*
X1629500Y768000I-5000J0D01*
G01*
X1684500Y310500D02*
Y319500D01*
X1701500Y310500D02*
Y319500D01*
X1684500D02*
X1701500D01*
X1684500Y310500D02*
X1701500D01*
X1658000Y526500D02*
X1667000D01*
X1658000Y543500D02*
X1667000D01*
X1658000Y526500D02*
Y543500D01*
X1667000Y526500D02*
Y543500D01*
X1700720Y568460D02*
Y584460D01*
X1692720D02*
X1700720D01*
X1692720Y568460D02*
Y584460D01*
Y568460D02*
X1700720D01*
X1676140Y600020D02*
Y609020D01*
X1693140Y600020D02*
Y609020D01*
X1676140D02*
X1693140D01*
X1676140Y600020D02*
X1693140D01*
X1580460Y753890D02*
X1589460D01*
X1580460Y736890D02*
X1589460D01*
Y753890D01*
X1580460Y736890D02*
Y753890D01*
X1549730Y703320D02*
X1559230D01*
X1549730Y720820D02*
X1559230D01*
X1549730Y703320D02*
Y720820D01*
X1559230Y703320D02*
Y720820D01*
X1549980Y694300D02*
X1558980D01*
X1549980Y677300D02*
X1558980D01*
Y694300D01*
X1549980Y677300D02*
Y694300D01*
X1570600Y658440D02*
Y667440D01*
X1553600Y658440D02*
Y667440D01*
Y658440D02*
X1570600D01*
X1553600Y667440D02*
X1570600D01*
X1622750Y563000D02*
Y572000D01*
X1639750Y563000D02*
Y572000D01*
X1622750D02*
X1639750D01*
X1622750Y563000D02*
X1639750D01*
X1578000Y533500D02*
X1587000D01*
X1578000Y516500D02*
X1587000D01*
Y533500D01*
X1578000Y516500D02*
Y533500D01*
X1597000Y488000D02*
X1623000D01*
X1597000Y442000D02*
X1623000D01*
X1597000D02*
Y488000D01*
X1623000Y442000D02*
Y488000D01*
X1616000Y700500D02*
Y709500D01*
X1599000Y700500D02*
Y709500D01*
Y700500D02*
X1616000D01*
X1599000Y709500D02*
X1616000D01*
Y685500D02*
Y694500D01*
X1599000Y685500D02*
Y694500D01*
Y685500D02*
X1616000D01*
X1599000Y694500D02*
X1616000D01*
Y673000D02*
Y682000D01*
X1599000Y673000D02*
Y682000D01*
Y673000D02*
X1616000D01*
X1599000Y682000D02*
X1616000D01*
X1660500Y595000D02*
Y640000D01*
X1594500Y595000D02*
Y640000D01*
X1660500D01*
X1594500Y595000D02*
X1660500D01*
X1707500Y295000D02*
X1757500D01*
X1707500Y335000D02*
X1757500D01*
X1707500Y295000D02*
Y335000D01*
X1757500Y295000D02*
Y335000D01*
X1723200Y536320D02*
X1731200D01*
Y520320D02*
Y536320D01*
X1723200Y520320D02*
X1731200D01*
X1723200D02*
Y536320D01*
X1615500Y723000D02*
Y777000D01*
X1669500Y723000D02*
Y777000D01*
X1615500D02*
X1669500D01*
X1615500Y723000D02*
X1669500D01*
X1686200Y377120D02*
X1768200D01*
Y477120D01*
X1686200D02*
X1768200D01*
X1686200Y377120D02*
Y477120D01*
X1649500Y475250D02*
Y484750D01*
X1667000Y475250D02*
Y484750D01*
X1649500D02*
X1667000D01*
X1649500Y475250D02*
X1667000D01*
X1647750Y466250D02*
X1657250D01*
X1647750Y448750D02*
X1657250D01*
Y466250D01*
X1647750Y448750D02*
Y466250D01*
X1545500Y536000D02*
Y544000D01*
X1529500Y536000D02*
X1545500D01*
X1529500D02*
Y544000D01*
X1545500D01*
X1481500Y390000D02*
Y490000D01*
X1563500D01*
Y390000D02*
Y490000D01*
X1481500Y390000D02*
X1563500D01*
X1667750Y689250D02*
Y705750D01*
X1677250Y689250D02*
Y705750D01*
X1667750Y689250D02*
X1677250D01*
X1667750Y705750D02*
X1677250D01*
X1567750Y448750D02*
Y466250D01*
X1577250Y448750D02*
Y466250D01*
X1567750Y448750D02*
X1577250D01*
X1567750Y466250D02*
X1577250D01*
X1588600Y266140D02*
Y381140D01*
X1662600D01*
Y266140D02*
Y381140D01*
X1588600Y266140D02*
X1662600D01*
X1474600Y660800D02*
X1531800D01*
X1474600Y559200D02*
Y660800D01*
Y559200D02*
X1531800D01*
Y660800D01*
D78*
X1645500Y543000D02*
G03*
X1644500Y544000I-1000J0D01*
G01*
Y516000D02*
G03*
X1645500Y517000I0J1000D01*
G01*
X1599500D02*
G03*
X1600500Y516000I1000J0D01*
G01*
Y544000D02*
G03*
X1599500Y543000I0J-1000D01*
G01*
X1645500Y515000D02*
G03*
X1646500Y516000I0J1000D01*
G01*
X1598500D02*
G03*
X1599500Y515000I1000J0D01*
G01*
Y545000D02*
G03*
X1598500Y544000I0J-1000D01*
G01*
X1646500D02*
G03*
X1645500Y545000I-1000J0D01*
G01*
X1598500Y514000D02*
G03*
X1597500Y515000I-1000J0D01*
G01*
Y545000D02*
G03*
X1598500Y546000I0J1000D01*
G01*
X1647500Y515000D02*
G03*
X1646500Y514000I0J-1000D01*
G01*
Y546000D02*
G03*
X1647500Y545000I1000J0D01*
G01*
X1599500Y517000D02*
Y543000D01*
X1645500Y517000D02*
Y543000D01*
X1600500Y516000D02*
X1644500D01*
X1600500Y544000D02*
X1644500D01*
X1599500Y515000D02*
X1645500D01*
X1598500Y516000D02*
Y544000D01*
X1646500Y516000D02*
Y544000D01*
X1599500Y545000D02*
X1645500D01*
X1647500Y515000D02*
Y545000D01*
X1598500Y514000D02*
X1646500D01*
X1597500Y515000D02*
Y545000D01*
X1598500Y546000D02*
X1646500D01*
M02*
