G04*
G04 #@! TF.GenerationSoftware,Altium Limited,Altium Designer,25.7.1 (20)*
G04*
G04 Layer_Color=8388736*
%FSLAX44Y44*%
%MOMM*%
G71*
G04*
G04 #@! TF.SameCoordinates,265DE244-54D5-4CCD-A973-AF3357FD315F*
G04*
G04*
G04 #@! TF.FilePolarity,Positive*
G04*
G01*
G75*
%ADD12C,0.2000*%
%ADD14C,0.0762*%
%ADD77C,0.1000*%
D12*
X1470750Y666750D02*
Y823650D01*
X1534250D01*
Y666750D02*
Y823650D01*
X1470750Y666750D02*
X1534250D01*
X1661610Y590200D02*
X1686110D01*
Y578200D02*
Y590200D01*
X1661610Y578200D02*
X1686110D01*
X1661610D02*
Y590200D01*
X1561500Y712250D02*
X1592500D01*
Y676250D02*
Y712250D01*
X1561500Y676250D02*
X1592500D01*
X1561500D02*
Y712250D01*
X1721200Y485590D02*
X1733200D01*
Y510090D01*
X1721200D02*
X1733200D01*
X1721200Y485590D02*
Y510090D01*
X1495250Y534000D02*
Y546000D01*
Y534000D02*
X1519750D01*
Y546000D01*
X1495250D02*
X1519750D01*
D14*
X1497929Y748501D02*
Y747232D01*
Y747866D01*
X1501103D01*
X1501738Y747232D01*
Y746597D01*
X1501103Y745962D01*
X1501738Y752310D02*
Y749771D01*
X1499199Y752310D01*
X1498564D01*
X1497929Y751675D01*
Y750406D01*
X1498564Y749771D01*
Y753579D02*
X1497929Y754214D01*
Y755484D01*
X1498564Y756119D01*
X1501103D01*
X1501738Y755484D01*
Y754214D01*
X1501103Y753579D01*
X1498564D01*
Y757388D02*
X1497929Y758023D01*
Y759293D01*
X1498564Y759927D01*
X1501103D01*
X1501738Y759293D01*
Y758023D01*
X1501103Y757388D01*
X1498564D01*
X1674622Y584962D02*
Y588771D01*
X1676526D01*
X1677161Y588136D01*
Y586866D01*
X1676526Y586231D01*
X1674622D01*
X1675892D02*
X1677161Y584962D01*
X1678431Y588136D02*
X1679066Y588771D01*
X1680335D01*
X1680970Y588136D01*
Y587501D01*
X1680335Y586866D01*
X1679700D01*
X1680335D01*
X1680970Y586231D01*
Y585597D01*
X1680335Y584962D01*
X1679066D01*
X1678431Y585597D01*
X1577762Y698821D02*
Y695647D01*
X1578397Y695012D01*
X1579666D01*
X1580301Y695647D01*
Y698821D01*
X1584110Y695012D02*
X1581571D01*
X1584110Y697551D01*
Y698186D01*
X1583475Y698821D01*
X1582205D01*
X1581571Y698186D01*
X1585379D02*
X1586014Y698821D01*
X1587284D01*
X1587919Y698186D01*
Y695647D01*
X1587284Y695012D01*
X1586014D01*
X1585379Y695647D01*
Y698186D01*
X1589188D02*
X1589823Y698821D01*
X1591093D01*
X1591727Y698186D01*
Y695647D01*
X1591093Y695012D01*
X1589823D01*
X1589188Y695647D01*
Y698186D01*
X1726438Y498602D02*
X1722629D01*
Y500506D01*
X1723264Y501141D01*
X1724534D01*
X1725168Y500506D01*
Y498602D01*
Y499871D02*
X1726438Y501141D01*
Y502411D02*
Y503680D01*
Y503046D01*
X1722629D01*
X1723264Y502411D01*
Y505585D02*
X1722629Y506219D01*
Y507489D01*
X1723264Y508124D01*
X1725803D01*
X1726438Y507489D01*
Y506219D01*
X1725803Y505585D01*
X1723264D01*
Y509393D02*
X1722629Y510028D01*
Y511298D01*
X1723264Y511933D01*
X1725803D01*
X1726438Y511298D01*
Y510028D01*
X1725803Y509393D01*
X1723264D01*
X1508262Y540762D02*
Y544571D01*
X1510166D01*
X1510801Y543936D01*
Y542666D01*
X1510166Y542032D01*
X1508262D01*
X1509532D02*
X1510801Y540762D01*
X1512071D02*
X1513340D01*
X1512706D01*
Y544571D01*
X1512071Y543936D01*
X1515245D02*
X1515879Y544571D01*
X1517149D01*
X1517784Y543936D01*
Y541397D01*
X1517149Y540762D01*
X1515879D01*
X1515245Y541397D01*
Y543936D01*
X1519053Y540762D02*
X1520323D01*
X1519688D01*
Y544571D01*
X1519053Y543936D01*
D77*
X1602750Y786000D02*
X1612250D01*
X1602750Y803000D02*
X1612250D01*
X1602750Y786000D02*
Y803000D01*
X1612250Y786000D02*
Y803000D01*
X1608000Y782750D02*
Y792250D01*
X1591000Y782750D02*
Y792250D01*
Y782750D02*
X1608000D01*
X1591000Y792250D02*
X1608000D01*
X1624470Y663270D02*
X1641970D01*
X1624470Y672770D02*
X1641970D01*
Y663270D02*
Y672770D01*
X1624470Y663270D02*
Y672770D01*
M02*
