G04*
G04 #@! TF.GenerationSoftware,Altium Limited,Altium Designer,25.7.1 (20)*
G04*
G04 Layer_Color=32768*
%FSLAX44Y44*%
%MOMM*%
G71*
G04*
G04 #@! TF.SameCoordinates,265DE244-54D5-4CCD-A973-AF3357FD315F*
G04*
G04*
G04 #@! TF.FilePolarity,Positive*
G04*
G01*
G75*
%ADD14C,0.0762*%
D14*
X1608770Y781800D02*
X1604961D01*
Y783704D01*
X1605596Y784339D01*
X1606866D01*
X1607500Y783704D01*
Y781800D01*
Y783070D02*
X1608770Y784339D01*
Y788148D02*
Y785609D01*
X1606231Y788148D01*
X1605596D01*
X1604961Y787513D01*
Y786244D01*
X1605596Y785609D01*
Y789418D02*
X1604961Y790052D01*
Y791322D01*
X1605596Y791957D01*
X1608135D01*
X1608770Y791322D01*
Y790052D01*
X1608135Y789418D01*
X1605596D01*
Y793226D02*
X1604961Y793861D01*
Y795131D01*
X1605596Y795766D01*
X1606231D01*
X1606866Y795131D01*
Y794496D01*
Y795131D01*
X1607500Y795766D01*
X1608135D01*
X1608770Y795131D01*
Y793861D01*
X1608135Y793226D01*
X1612200Y788770D02*
Y784961D01*
X1610296D01*
X1609661Y785596D01*
Y786866D01*
X1610296Y787500D01*
X1612200D01*
X1610930D02*
X1609661Y788770D01*
X1605852D02*
X1608391D01*
X1605852Y786231D01*
Y785596D01*
X1606487Y784961D01*
X1607756D01*
X1608391Y785596D01*
X1604582D02*
X1603948Y784961D01*
X1602678D01*
X1602043Y785596D01*
Y788135D01*
X1602678Y788770D01*
X1603948D01*
X1604582Y788135D01*
Y785596D01*
X1598235Y784961D02*
X1600774D01*
Y786866D01*
X1599504Y786231D01*
X1598869D01*
X1598235Y786866D01*
Y788135D01*
X1598869Y788770D01*
X1600139D01*
X1600774Y788135D01*
X1623059Y669924D02*
X1622424Y670559D01*
X1621155D01*
X1620520Y669924D01*
Y667385D01*
X1621155Y666750D01*
X1622424D01*
X1623059Y667385D01*
X1626868Y666750D02*
X1624329D01*
X1626868Y669289D01*
Y669924D01*
X1626233Y670559D01*
X1624964D01*
X1624329Y669924D01*
M02*
