G04*
G04 #@! TF.GenerationSoftware,Altium Limited,Altium Designer,25.7.1 (20)*
G04*
G04 Layer_Color=16711935*
%FSLAX44Y44*%
%MOMM*%
G71*
G04*
G04 #@! TF.SameCoordinates,265DE244-54D5-4CCD-A973-AF3357FD315F*
G04*
G04*
G04 #@! TF.FilePolarity,Negative*
G04*
G01*
G75*
%ADD55R,1.8400X1.8400*%
%ADD56C,1.8400*%
%ADD57C,1.5500*%
%ADD58C,1.9500*%
%ADD59R,1.9500X1.9500*%
%ADD60C,1.7500*%
%ADD61R,1.7500X1.7500*%
%ADD62R,1.5500X1.5500*%
%ADD63C,0.7500*%
D55*
X1502500Y808700D02*
D03*
D56*
Y783300D02*
D03*
Y757900D02*
D03*
Y732500D02*
D03*
Y707100D02*
D03*
Y681700D02*
D03*
D57*
X1638100Y358140D02*
D03*
D58*
X1500000Y648100D02*
D03*
Y622700D02*
D03*
Y597300D02*
D03*
D59*
Y571900D02*
D03*
D60*
X1727200Y452120D02*
D03*
X1522500Y465000D02*
D03*
D61*
X1727200Y402120D02*
D03*
X1522500Y415000D02*
D03*
D62*
X1613100Y358140D02*
D03*
D63*
X1554480Y731520D02*
D03*
X1518920Y711200D02*
D03*
X1666240Y464820D02*
D03*
X1595120Y716280D02*
D03*
X1686560Y568960D02*
D03*
X1651000Y566420D02*
D03*
X1741500Y535000D02*
D03*
X1635760Y678180D02*
D03*
X1633220Y713740D02*
D03*
X1738630Y271780D02*
D03*
X1713230D02*
D03*
X1725930D02*
D03*
X1661160Y515620D02*
D03*
X1652500Y440000D02*
D03*
X1620520Y802640D02*
D03*
X1584960Y718820D02*
D03*
Y581660D02*
D03*
X1582420Y543560D02*
D03*
X1572500Y437500D02*
D03*
X1544320Y662940D02*
D03*
X1546860Y528320D02*
D03*
X1706880Y617220D02*
D03*
X1645920Y690880D02*
D03*
X1623060Y627380D02*
D03*
X1579880Y662940D02*
D03*
X1681480Y396240D02*
D03*
X1663700Y566420D02*
D03*
X1612900Y627380D02*
D03*
M02*
