G04*
G04 #@! TF.GenerationSoftware,Altium Limited,Altium Designer,25.7.1 (20)*
G04*
G04 Layer_Physical_Order=2*
G04 Layer_Color=16711680*
%FSLAX44Y44*%
%MOMM*%
G71*
G04*
G04 #@! TF.SameCoordinates,265DE244-54D5-4CCD-A973-AF3357FD315F*
G04*
G04*
G04 #@! TF.FilePolarity,Positive*
G04*
G01*
G75*
%ADD55R,1.8400X1.8400*%
%ADD56C,1.8400*%
%ADD64C,0.6350*%
%ADD66C,0.3048*%
%ADD70C,1.4000*%
%ADD71C,1.8000*%
%ADD72R,1.8000X1.8000*%
%ADD73C,1.6000*%
%ADD74R,1.6000X1.6000*%
%ADD75R,1.4000X1.4000*%
%ADD76C,0.6000*%
G36*
X1770881Y261119D02*
X1467619D01*
Y833621D01*
X1770881D01*
Y261119D01*
D02*
G37*
%LPC*%
G36*
X1512970Y819170D02*
X1492030D01*
Y801299D01*
X1491975Y801024D01*
X1491975Y801024D01*
Y793766D01*
X1488492Y790282D01*
X1487874Y789358D01*
X1487657Y788268D01*
X1487657Y788268D01*
Y778332D01*
X1487657Y778332D01*
X1487874Y777242D01*
X1488492Y776318D01*
X1496224Y768586D01*
X1496828Y768182D01*
X1496951Y767090D01*
X1496873Y766741D01*
X1496071Y766278D01*
X1494122Y764329D01*
X1492744Y761941D01*
X1492030Y759278D01*
Y756522D01*
X1492744Y753859D01*
X1494122Y751471D01*
X1496071Y749522D01*
X1496873Y749059D01*
X1496951Y748710D01*
X1496828Y747618D01*
X1496224Y747214D01*
X1496223Y747214D01*
X1488492Y739482D01*
X1487874Y738558D01*
X1487657Y737468D01*
X1487657Y737468D01*
Y727532D01*
X1487657Y727532D01*
X1487874Y726442D01*
X1488492Y725518D01*
X1496701Y717308D01*
X1496752Y716154D01*
X1496691Y715836D01*
X1496071Y715478D01*
X1494122Y713529D01*
X1492744Y711141D01*
X1492030Y708478D01*
Y707735D01*
X1502500D01*
X1512970D01*
Y708478D01*
X1512256Y711141D01*
X1510878Y713529D01*
X1509431Y714975D01*
X1509958Y716245D01*
X1516624D01*
X1516876Y714975D01*
X1516501Y714820D01*
X1515300Y713619D01*
X1514650Y712049D01*
Y710351D01*
X1515300Y708781D01*
X1516501Y707580D01*
X1518071Y706930D01*
X1519769D01*
X1521339Y707580D01*
X1521828Y708070D01*
X1522528D01*
X1604667Y625930D01*
X1604667Y625930D01*
X1605591Y625313D01*
X1606681Y625096D01*
X1609224D01*
X1609280Y624961D01*
X1610481Y623760D01*
X1612051Y623110D01*
X1613749D01*
X1615319Y623760D01*
X1616520Y624961D01*
X1617170Y626531D01*
Y627094D01*
X1617428Y627389D01*
X1618440Y627790D01*
X1618790Y627467D01*
Y626531D01*
X1619440Y624961D01*
X1620641Y623760D01*
X1622211Y623110D01*
X1623909D01*
X1625479Y623760D01*
X1626680Y624961D01*
X1627330Y626531D01*
Y628229D01*
X1626680Y629799D01*
X1625479Y631000D01*
X1623909Y631650D01*
X1623393D01*
X1520528Y734514D01*
X1519604Y735132D01*
X1518514Y735349D01*
X1518514Y735349D01*
X1512576D01*
X1512256Y736541D01*
X1510878Y738929D01*
X1508929Y740878D01*
X1508127Y741341D01*
X1508049Y741690D01*
X1508172Y742782D01*
X1508776Y743186D01*
X1516508Y750918D01*
X1516508Y750918D01*
X1517126Y751842D01*
X1517343Y752932D01*
X1517343Y752932D01*
Y762868D01*
X1517343Y762868D01*
X1517126Y763958D01*
X1516508Y764882D01*
X1516508Y764883D01*
X1508777Y772614D01*
X1508172Y773018D01*
X1508049Y774110D01*
X1508127Y774459D01*
X1508929Y774922D01*
X1510878Y776871D01*
X1512256Y779259D01*
X1512576Y780451D01*
X1527494D01*
X1590850Y717095D01*
Y715431D01*
X1591500Y713861D01*
X1592701Y712660D01*
X1594271Y712010D01*
X1595969D01*
X1597539Y712660D01*
X1598740Y713861D01*
X1599390Y715431D01*
Y717129D01*
X1598740Y718699D01*
X1597539Y719900D01*
X1595969Y720550D01*
X1595453D01*
X1530688Y785314D01*
X1529764Y785932D01*
X1528674Y786149D01*
X1528674Y786149D01*
X1512576D01*
X1512256Y787341D01*
X1510878Y789729D01*
X1508929Y791678D01*
X1506541Y793056D01*
X1503878Y793770D01*
X1501122D01*
X1498943Y793186D01*
X1497673Y793932D01*
Y798230D01*
X1512970D01*
Y819170D01*
D02*
G37*
G36*
Y706465D02*
X1503135D01*
Y696630D01*
X1503878D01*
X1506541Y697344D01*
X1508929Y698722D01*
X1510878Y700671D01*
X1512256Y703059D01*
X1512970Y705722D01*
Y706465D01*
D02*
G37*
G36*
X1501865D02*
X1492030D01*
Y705722D01*
X1492744Y703059D01*
X1494122Y700671D01*
X1496071Y698722D01*
X1498459Y697344D01*
X1501122Y696630D01*
X1501865D01*
Y706465D01*
D02*
G37*
G36*
X1503878Y692170D02*
X1501122D01*
X1498459Y691457D01*
X1496071Y690078D01*
X1494122Y688129D01*
X1492744Y685741D01*
X1492030Y683078D01*
Y680322D01*
X1492744Y677659D01*
X1494122Y675271D01*
X1496071Y673322D01*
X1498459Y671944D01*
X1501122Y671230D01*
X1503878D01*
X1506541Y671944D01*
X1508929Y673322D01*
X1510878Y675271D01*
X1512256Y677659D01*
X1512970Y680322D01*
Y683078D01*
X1512256Y685741D01*
X1510878Y688129D01*
X1508929Y690078D01*
X1506541Y691457D01*
X1503878Y692170D01*
D02*
G37*
G36*
X1501352Y658370D02*
X1500635D01*
Y648735D01*
X1510270D01*
Y649452D01*
X1509570Y652064D01*
X1508218Y654406D01*
X1506306Y656318D01*
X1503964Y657670D01*
X1501352Y658370D01*
D02*
G37*
G36*
X1499365D02*
X1498648D01*
X1496036Y657670D01*
X1493694Y656318D01*
X1491782Y654406D01*
X1490430Y652064D01*
X1489730Y649452D01*
Y648735D01*
X1499365D01*
Y658370D01*
D02*
G37*
G36*
X1510270Y647465D02*
X1500635D01*
Y637830D01*
X1501352D01*
X1503964Y638530D01*
X1506306Y639882D01*
X1508218Y641794D01*
X1509570Y644136D01*
X1510270Y646748D01*
Y647465D01*
D02*
G37*
G36*
X1499365D02*
X1489730D01*
Y646748D01*
X1490430Y644136D01*
X1491782Y641794D01*
X1493694Y639882D01*
X1496036Y638530D01*
X1498648Y637830D01*
X1499365D01*
Y647465D01*
D02*
G37*
G36*
X1645920Y695412D02*
X1644186Y695067D01*
X1642715Y694085D01*
X1641733Y692614D01*
X1641388Y690880D01*
Y675640D01*
X1641733Y673906D01*
X1642715Y672435D01*
X1659168Y655983D01*
Y637540D01*
X1659513Y635806D01*
X1660495Y634335D01*
X1680815Y614015D01*
X1682286Y613033D01*
X1684020Y612688D01*
X1684020Y612688D01*
X1706880D01*
X1708614Y613033D01*
X1710085Y614015D01*
X1711067Y615486D01*
X1711412Y617220D01*
X1711067Y618954D01*
X1710085Y620425D01*
X1708614Y621407D01*
X1706880Y621752D01*
X1685897D01*
X1668232Y639417D01*
Y657860D01*
X1667887Y659594D01*
X1666905Y661065D01*
X1666905Y661065D01*
X1650452Y677517D01*
Y690880D01*
X1650107Y692614D01*
X1649125Y694085D01*
X1647654Y695067D01*
X1645920Y695412D01*
D02*
G37*
G36*
X1501352Y632970D02*
X1498648D01*
X1496036Y632270D01*
X1493694Y630918D01*
X1491782Y629006D01*
X1490430Y626664D01*
X1489730Y624052D01*
Y621348D01*
X1490430Y618736D01*
X1491782Y616394D01*
X1493694Y614482D01*
X1496036Y613130D01*
X1498648Y612430D01*
X1501352D01*
X1503964Y613130D01*
X1506306Y614482D01*
X1508218Y616394D01*
X1509570Y618736D01*
X1510270Y621348D01*
Y624052D01*
X1509570Y626664D01*
X1508218Y629006D01*
X1506306Y630918D01*
X1503964Y632270D01*
X1501352Y632970D01*
D02*
G37*
G36*
Y607570D02*
X1498648D01*
X1496036Y606870D01*
X1493694Y605518D01*
X1491782Y603606D01*
X1490430Y601264D01*
X1489730Y598652D01*
Y595948D01*
X1490430Y593336D01*
X1491782Y590994D01*
X1493694Y589082D01*
X1496036Y587730D01*
X1498648Y587030D01*
X1501352D01*
X1503964Y587730D01*
X1506306Y589082D01*
X1508218Y590994D01*
X1509570Y593336D01*
X1510270Y595948D01*
Y598652D01*
X1509570Y601264D01*
X1508218Y603606D01*
X1506306Y605518D01*
X1503964Y606870D01*
X1501352Y607570D01*
D02*
G37*
G36*
X1510270Y582170D02*
X1489730D01*
Y561630D01*
X1510270D01*
Y582170D01*
D02*
G37*
G36*
X1523720Y474270D02*
X1521280D01*
X1518922Y473638D01*
X1516808Y472418D01*
X1515082Y470692D01*
X1513862Y468578D01*
X1513230Y466220D01*
Y463780D01*
X1513862Y461422D01*
X1515082Y459308D01*
X1516808Y457582D01*
X1518922Y456362D01*
X1521280Y455730D01*
X1523720D01*
X1526078Y456362D01*
X1528192Y457582D01*
X1529918Y459308D01*
X1531138Y461422D01*
X1531770Y463780D01*
Y466220D01*
X1531138Y468578D01*
X1529918Y470692D01*
X1528192Y472418D01*
X1526078Y473638D01*
X1523720Y474270D01*
D02*
G37*
G36*
X1728420Y461390D02*
X1725980D01*
X1723622Y460758D01*
X1721508Y459538D01*
X1719782Y457812D01*
X1718562Y455698D01*
X1717930Y453340D01*
Y450900D01*
X1718562Y448542D01*
X1719782Y446428D01*
X1721508Y444702D01*
X1723622Y443482D01*
X1725980Y442850D01*
X1728420D01*
X1730778Y443482D01*
X1732892Y444702D01*
X1734618Y446428D01*
X1735838Y448542D01*
X1736470Y450900D01*
Y453340D01*
X1735838Y455698D01*
X1734618Y457812D01*
X1732892Y459538D01*
X1730778Y460758D01*
X1728420Y461390D01*
D02*
G37*
G36*
X1531770Y424270D02*
X1513230D01*
Y405730D01*
X1531770D01*
Y424270D01*
D02*
G37*
G36*
X1736470Y411390D02*
X1717930D01*
Y392850D01*
X1736470D01*
Y411390D01*
D02*
G37*
G36*
X1664549Y570690D02*
X1662851D01*
X1661281Y570040D01*
X1660080Y568839D01*
X1659430Y567269D01*
Y565571D01*
X1660080Y564001D01*
X1661281Y562800D01*
X1662851Y562150D01*
X1663941D01*
X1673551Y552540D01*
Y401320D01*
X1673551Y401320D01*
X1673768Y400230D01*
X1674386Y399306D01*
X1677210Y396481D01*
Y395391D01*
X1677860Y393821D01*
X1679061Y392620D01*
X1680631Y391970D01*
X1682329D01*
X1683899Y392620D01*
X1685100Y393821D01*
X1685750Y395391D01*
Y397089D01*
X1685100Y398659D01*
X1683899Y399860D01*
X1682329Y400510D01*
X1681239D01*
X1679249Y402500D01*
Y553720D01*
X1679249Y553720D01*
X1679032Y554810D01*
X1678414Y555734D01*
X1678414Y555734D01*
X1667970Y566179D01*
Y567269D01*
X1667320Y568839D01*
X1666119Y570040D01*
X1664549Y570690D01*
D02*
G37*
G36*
X1639189Y366410D02*
X1638735D01*
Y358775D01*
X1646370D01*
Y359229D01*
X1645806Y361332D01*
X1644718Y363218D01*
X1643178Y364758D01*
X1641292Y365846D01*
X1639189Y366410D01*
D02*
G37*
G36*
X1637465D02*
X1637011D01*
X1634908Y365846D01*
X1633022Y364758D01*
X1631482Y363218D01*
X1630394Y361332D01*
X1629830Y359229D01*
Y358775D01*
X1637465D01*
Y366410D01*
D02*
G37*
G36*
X1646370Y357505D02*
X1638735D01*
Y349870D01*
X1639189D01*
X1641292Y350434D01*
X1643178Y351522D01*
X1644718Y353062D01*
X1645806Y354948D01*
X1646370Y357051D01*
Y357505D01*
D02*
G37*
G36*
X1637465D02*
X1629830D01*
Y357051D01*
X1630394Y354948D01*
X1631482Y353062D01*
X1633022Y351522D01*
X1634908Y350434D01*
X1637011Y349870D01*
X1637465D01*
Y357505D01*
D02*
G37*
G36*
X1621370Y366410D02*
X1604830D01*
Y349870D01*
X1621370D01*
Y366410D01*
D02*
G37*
%LPD*%
G36*
X1614162Y632823D02*
X1613952Y632227D01*
X1613539Y631650D01*
X1612051D01*
X1610481Y631000D01*
X1610275Y630794D01*
X1607861D01*
X1581158Y657497D01*
X1581473Y658978D01*
X1582299Y659320D01*
X1583500Y660521D01*
X1583842Y661347D01*
X1585323Y661662D01*
X1614162Y632823D01*
D02*
G37*
D55*
X1502500Y808700D02*
D03*
D56*
Y783300D02*
D03*
Y757900D02*
D03*
Y732500D02*
D03*
Y707100D02*
D03*
Y681700D02*
D03*
D64*
X1645920Y675640D02*
X1663700Y657860D01*
X1645920Y675640D02*
Y690880D01*
X1684020Y617220D02*
X1706880D01*
X1663700Y637540D02*
Y657860D01*
Y637540D02*
X1684020Y617220D01*
D66*
X1518920Y710918D02*
X1523708D01*
X1595120Y716280D02*
Y716854D01*
X1528674Y783300D02*
X1595120Y716854D01*
X1502500Y783300D02*
X1528674D01*
X1623060Y627380D02*
Y627954D01*
X1502500Y732500D02*
X1518514D01*
X1623060Y627954D01*
X1514494Y752932D02*
Y762868D01*
X1506762Y770600D02*
X1514494Y762868D01*
X1506762Y745200D02*
X1514494Y752932D01*
X1523726Y719094D02*
X1579880Y662940D01*
X1494824Y801024D02*
X1502500Y808700D01*
X1490506Y778332D02*
X1498238Y770600D01*
X1494824Y792586D02*
Y801024D01*
X1490506Y788268D02*
X1494824Y792586D01*
X1490506Y778332D02*
Y788268D01*
X1498238Y770600D02*
X1506762D01*
X1498238Y745200D02*
X1506762D01*
X1498944Y719094D02*
X1523726D01*
X1490506Y727532D02*
Y737468D01*
X1498238Y745200D01*
X1490506Y727532D02*
X1498944Y719094D01*
X1523708Y710918D02*
X1606681Y627945D01*
X1676400Y401320D02*
X1681480Y396240D01*
X1663700Y566420D02*
X1676400Y553720D01*
Y401320D02*
Y553720D01*
X1612335Y627945D02*
X1612900Y627380D01*
X1606681Y627945D02*
X1612335D01*
D70*
X1638100Y358140D02*
D03*
D71*
X1500000Y648100D02*
D03*
Y622700D02*
D03*
Y597300D02*
D03*
D72*
Y571900D02*
D03*
D73*
X1727200Y452120D02*
D03*
X1522500Y465000D02*
D03*
D74*
X1727200Y402120D02*
D03*
X1522500Y415000D02*
D03*
D75*
X1613100Y358140D02*
D03*
D76*
X1554480Y731520D02*
D03*
X1518920Y711200D02*
D03*
X1666240Y464820D02*
D03*
X1595120Y716280D02*
D03*
X1686560Y568960D02*
D03*
X1651000Y566420D02*
D03*
X1741500Y535000D02*
D03*
X1635760Y678180D02*
D03*
X1633220Y713740D02*
D03*
X1738630Y271780D02*
D03*
X1713230D02*
D03*
X1725930D02*
D03*
X1661160Y515620D02*
D03*
X1652500Y440000D02*
D03*
X1620520Y802640D02*
D03*
X1584960Y718820D02*
D03*
Y581660D02*
D03*
X1582420Y543560D02*
D03*
X1572500Y437500D02*
D03*
X1544320Y662940D02*
D03*
X1546860Y528320D02*
D03*
X1706880Y617220D02*
D03*
X1645920Y690880D02*
D03*
X1623060Y627380D02*
D03*
X1579880Y662940D02*
D03*
X1681480Y396240D02*
D03*
X1663700Y566420D02*
D03*
X1612900Y627380D02*
D03*
M02*
