G04*
G04 #@! TF.GenerationSoftware,Altium Limited,Altium Designer,25.7.1 (20)*
G04*
G04 Layer_Color=65535*
%FSLAX44Y44*%
%MOMM*%
G71*
G04*
G04 #@! TF.SameCoordinates,265DE244-54D5-4CCD-A973-AF3357FD315F*
G04*
G04*
G04 #@! TF.FilePolarity,Positive*
G04*
G01*
G75*
%ADD10C,0.2500*%
%ADD11C,0.6000*%
%ADD12C,0.2000*%
%ADD13C,0.4000*%
%ADD14C,0.0762*%
%ADD15C,0.2540*%
G36*
X1478280Y448879D02*
X1473797D01*
X1473783D01*
X1473755D01*
X1473713D01*
X1473656D01*
X1473501Y448865D01*
X1473304Y448837D01*
X1473092Y448781D01*
X1472881Y448710D01*
X1472669Y448611D01*
X1472500Y448485D01*
X1472486Y448470D01*
X1472430Y448414D01*
X1472359Y448330D01*
X1472289Y448203D01*
X1472204Y448048D01*
X1472148Y447864D01*
X1472091Y447639D01*
X1472077Y447385D01*
Y447300D01*
X1472091Y447202D01*
X1472106Y447061D01*
X1472148Y446920D01*
X1472190Y446751D01*
X1472261Y446581D01*
X1472359Y446398D01*
X1472373Y446384D01*
X1472416Y446328D01*
X1472472Y446243D01*
X1472557Y446144D01*
X1472669Y446032D01*
X1472796Y445919D01*
X1472951Y445820D01*
X1473121Y445736D01*
X1473149Y445722D01*
X1473205Y445708D01*
X1473318Y445679D01*
X1473459Y445637D01*
X1473642Y445595D01*
X1473868Y445566D01*
X1474121Y445552D01*
X1474417Y445538D01*
X1478280D01*
Y444340D01*
X1468525D01*
Y445538D01*
X1472021D01*
X1472007Y445552D01*
X1471979Y445581D01*
X1471936Y445623D01*
X1471866Y445693D01*
X1471795Y445764D01*
X1471711Y445863D01*
X1471626Y445989D01*
X1471528Y446116D01*
X1471443Y446257D01*
X1471358Y446412D01*
X1471203Y446779D01*
X1471133Y446976D01*
X1471091Y447188D01*
X1471062Y447413D01*
X1471048Y447639D01*
Y447766D01*
X1471062Y447921D01*
X1471091Y448104D01*
X1471119Y448316D01*
X1471175Y448541D01*
X1471260Y448767D01*
X1471358Y448992D01*
X1471373Y449020D01*
X1471415Y449091D01*
X1471485Y449189D01*
X1471584Y449316D01*
X1471711Y449443D01*
X1471852Y449584D01*
X1472021Y449711D01*
X1472218Y449824D01*
X1472247Y449838D01*
X1472317Y449866D01*
X1472444Y449908D01*
X1472627Y449951D01*
X1472853Y449993D01*
X1473121Y450035D01*
X1473445Y450064D01*
X1473811Y450078D01*
X1478280D01*
Y448879D01*
D02*
G37*
G36*
X1475898Y443297D02*
X1475954Y443283D01*
X1476039Y443269D01*
X1476151Y443241D01*
X1476264Y443212D01*
X1476546Y443114D01*
X1476842Y442987D01*
X1477166Y442803D01*
X1477477Y442578D01*
X1477617Y442451D01*
X1477758Y442310D01*
X1477773Y442296D01*
X1477787Y442268D01*
X1477815Y442226D01*
X1477857Y442169D01*
X1477914Y442099D01*
X1477970Y442000D01*
X1478026Y441887D01*
X1478097Y441774D01*
X1478224Y441493D01*
X1478322Y441154D01*
X1478407Y440788D01*
X1478421Y440576D01*
X1478435Y440365D01*
Y440224D01*
X1478421Y440125D01*
X1478407Y439998D01*
X1478379Y439857D01*
X1478351Y439702D01*
X1478322Y439533D01*
X1478210Y439152D01*
X1478125Y438969D01*
X1478040Y438772D01*
X1477928Y438574D01*
X1477801Y438391D01*
X1477660Y438208D01*
X1477491Y438039D01*
X1477477Y438025D01*
X1477448Y437996D01*
X1477392Y437954D01*
X1477321Y437898D01*
X1477223Y437841D01*
X1477096Y437757D01*
X1476955Y437686D01*
X1476800Y437602D01*
X1476617Y437517D01*
X1476405Y437447D01*
X1476194Y437362D01*
X1475940Y437306D01*
X1475686Y437249D01*
X1475390Y437207D01*
X1475094Y437179D01*
X1474770Y437165D01*
X1474756D01*
X1474713D01*
X1474657D01*
X1474572D01*
X1474474Y437179D01*
X1474361D01*
X1474234Y437193D01*
X1474093Y437207D01*
X1473783Y437249D01*
X1473445Y437320D01*
X1473106Y437404D01*
X1472768Y437531D01*
X1472754D01*
X1472726Y437545D01*
X1472684Y437574D01*
X1472627Y437602D01*
X1472472Y437686D01*
X1472289Y437813D01*
X1472077Y437982D01*
X1471866Y438180D01*
X1471654Y438419D01*
X1471485Y438687D01*
Y438701D01*
X1471471Y438730D01*
X1471443Y438772D01*
X1471415Y438828D01*
X1471387Y438899D01*
X1471344Y438983D01*
X1471260Y439195D01*
X1471189Y439434D01*
X1471119Y439730D01*
X1471062Y440041D01*
X1471048Y440379D01*
Y440492D01*
X1471062Y440576D01*
Y440661D01*
X1471076Y440774D01*
X1471119Y441041D01*
X1471189Y441337D01*
X1471302Y441648D01*
X1471443Y441958D01*
X1471640Y442254D01*
Y442268D01*
X1471669Y442282D01*
X1471753Y442366D01*
X1471880Y442493D01*
X1472063Y442649D01*
X1472289Y442803D01*
X1472571Y442959D01*
X1472895Y443100D01*
X1473276Y443198D01*
X1473459Y442028D01*
X1473445D01*
X1473431Y442014D01*
X1473346Y442000D01*
X1473219Y441958D01*
X1473064Y441887D01*
X1472895Y441817D01*
X1472712Y441704D01*
X1472543Y441577D01*
X1472402Y441436D01*
X1472388Y441422D01*
X1472345Y441366D01*
X1472289Y441267D01*
X1472218Y441154D01*
X1472148Y440999D01*
X1472091Y440830D01*
X1472049Y440633D01*
X1472035Y440421D01*
Y440337D01*
X1472049Y440266D01*
X1472063Y440111D01*
X1472120Y439900D01*
X1472190Y439674D01*
X1472303Y439420D01*
X1472472Y439181D01*
X1472571Y439068D01*
X1472684Y438955D01*
X1472698D01*
X1472712Y438927D01*
X1472754Y438899D01*
X1472810Y438871D01*
X1472881Y438828D01*
X1472965Y438772D01*
X1473064Y438730D01*
X1473177Y438673D01*
X1473318Y438617D01*
X1473473Y438574D01*
X1473642Y438518D01*
X1473825Y438476D01*
X1474023Y438448D01*
X1474248Y438419D01*
X1474488Y438391D01*
X1474742D01*
X1474756D01*
X1474798D01*
X1474883D01*
X1474967Y438405D01*
X1475094D01*
X1475221Y438419D01*
X1475531Y438462D01*
X1475869Y438518D01*
X1476222Y438617D01*
X1476532Y438744D01*
X1476687Y438828D01*
X1476814Y438927D01*
X1476842Y438955D01*
X1476913Y439025D01*
X1477011Y439152D01*
X1477124Y439308D01*
X1477251Y439519D01*
X1477350Y439759D01*
X1477420Y440041D01*
X1477434Y440196D01*
X1477448Y440351D01*
Y440379D01*
X1477434Y440463D01*
X1477420Y440604D01*
X1477392Y440760D01*
X1477350Y440943D01*
X1477265Y441140D01*
X1477166Y441337D01*
X1477025Y441521D01*
X1477011Y441549D01*
X1476941Y441591D01*
X1476842Y441676D01*
X1476687Y441774D01*
X1476504Y441873D01*
X1476278Y441986D01*
X1475996Y442071D01*
X1475686Y442127D01*
X1475841Y443311D01*
X1475855D01*
X1475898Y443297D01*
D02*
G37*
G36*
X1478280Y436460D02*
X1478294Y436404D01*
X1478308Y436305D01*
X1478322Y436178D01*
X1478351Y436037D01*
X1478365Y435882D01*
X1478379Y435572D01*
Y435459D01*
X1478365Y435346D01*
X1478351Y435205D01*
X1478336Y435036D01*
X1478294Y434867D01*
X1478252Y434712D01*
X1478181Y434557D01*
X1478167Y434543D01*
X1478139Y434500D01*
X1478097Y434444D01*
X1478026Y434359D01*
X1477956Y434289D01*
X1477857Y434204D01*
X1477758Y434120D01*
X1477632Y434063D01*
X1477617D01*
X1477561Y434035D01*
X1477462Y434021D01*
X1477321Y433993D01*
X1477138Y433965D01*
X1477025Y433951D01*
X1476898D01*
X1476743Y433937D01*
X1476588Y433922D01*
X1476419D01*
X1476222D01*
X1472134D01*
Y433034D01*
X1471203D01*
Y433922D01*
X1469455D01*
X1468736Y435121D01*
X1471203D01*
Y436333D01*
X1472134D01*
Y435121D01*
X1476292D01*
X1476320D01*
X1476377D01*
X1476461D01*
X1476560Y435135D01*
X1476786Y435149D01*
X1476884Y435163D01*
X1476955Y435177D01*
X1476983Y435191D01*
X1477039Y435233D01*
X1477110Y435290D01*
X1477180Y435388D01*
X1477195Y435417D01*
X1477223Y435487D01*
X1477251Y435614D01*
X1477265Y435797D01*
Y435938D01*
X1477251Y436009D01*
Y436107D01*
X1477237Y436220D01*
X1477223Y436333D01*
X1478280Y436488D01*
Y436460D01*
D02*
G37*
G36*
Y430694D02*
X1471203D01*
Y431893D01*
X1478280D01*
Y430694D01*
D02*
G37*
G36*
X1469892D02*
X1468525D01*
Y431893D01*
X1469892D01*
Y430694D01*
D02*
G37*
G36*
X1478280Y427466D02*
Y426226D01*
X1474051Y425098D01*
X1472839Y424816D01*
X1478280Y423392D01*
Y422123D01*
X1471203Y419981D01*
Y421235D01*
X1475291Y422363D01*
X1476814Y422758D01*
X1476800D01*
X1476772Y422772D01*
X1476701Y422786D01*
X1476659Y422800D01*
X1476588Y422814D01*
X1476504Y422828D01*
X1476405Y422856D01*
X1476292Y422884D01*
X1476151Y422927D01*
X1475996Y422969D01*
X1475813Y423011D01*
X1475602Y423068D01*
X1475362Y423124D01*
X1471203Y424252D01*
Y425478D01*
X1475320Y426536D01*
X1476673Y426888D01*
X1475305Y427297D01*
X1471203Y428509D01*
Y429679D01*
X1478280Y427466D01*
D02*
G37*
G36*
X1475827Y419205D02*
X1476024Y419177D01*
X1476250Y419121D01*
X1476490Y419050D01*
X1476743Y418937D01*
X1477011Y418782D01*
X1477025D01*
X1477039Y418768D01*
X1477124Y418698D01*
X1477251Y418599D01*
X1477392Y418458D01*
X1477561Y418275D01*
X1477744Y418049D01*
X1477914Y417795D01*
X1478069Y417499D01*
Y417485D01*
X1478083Y417457D01*
X1478097Y417415D01*
X1478125Y417358D01*
X1478153Y417274D01*
X1478195Y417175D01*
X1478252Y416950D01*
X1478322Y416682D01*
X1478393Y416358D01*
X1478435Y416005D01*
X1478449Y415625D01*
Y415399D01*
X1478435Y415286D01*
Y415159D01*
X1478421Y415018D01*
X1478407Y414849D01*
X1478351Y414497D01*
X1478294Y414130D01*
X1478195Y413764D01*
X1478069Y413411D01*
Y413397D01*
X1478054Y413369D01*
X1478026Y413327D01*
X1477998Y413270D01*
X1477914Y413101D01*
X1477787Y412904D01*
X1477617Y412678D01*
X1477420Y412439D01*
X1477180Y412213D01*
X1476913Y412002D01*
X1476898D01*
X1476870Y411973D01*
X1476828Y411959D01*
X1476772Y411917D01*
X1476701Y411889D01*
X1476617Y411847D01*
X1476405Y411748D01*
X1476137Y411649D01*
X1475841Y411565D01*
X1475503Y411508D01*
X1475150Y411480D01*
X1475038Y412692D01*
X1475052D01*
X1475066D01*
X1475108Y412706D01*
X1475165D01*
X1475291Y412735D01*
X1475475Y412777D01*
X1475658Y412833D01*
X1475869Y412890D01*
X1476067Y412988D01*
X1476250Y413087D01*
X1476264Y413101D01*
X1476320Y413143D01*
X1476419Y413214D01*
X1476518Y413327D01*
X1476645Y413468D01*
X1476772Y413623D01*
X1476898Y413834D01*
X1477011Y414060D01*
Y414074D01*
X1477025Y414088D01*
X1477039Y414130D01*
X1477054Y414173D01*
X1477096Y414314D01*
X1477152Y414497D01*
X1477209Y414722D01*
X1477251Y414976D01*
X1477279Y415258D01*
X1477293Y415568D01*
Y415695D01*
X1477279Y415836D01*
X1477265Y416005D01*
X1477237Y416203D01*
X1477209Y416428D01*
X1477152Y416654D01*
X1477082Y416865D01*
X1477068Y416893D01*
X1477039Y416964D01*
X1476983Y417062D01*
X1476927Y417189D01*
X1476828Y417316D01*
X1476729Y417457D01*
X1476617Y417598D01*
X1476476Y417711D01*
X1476461Y417725D01*
X1476405Y417753D01*
X1476335Y417795D01*
X1476222Y417852D01*
X1476109Y417908D01*
X1475968Y417951D01*
X1475813Y417979D01*
X1475644Y417993D01*
X1475630D01*
X1475559D01*
X1475475Y417979D01*
X1475362Y417965D01*
X1475249Y417922D01*
X1475108Y417880D01*
X1474967Y417810D01*
X1474840Y417711D01*
X1474826Y417697D01*
X1474784Y417654D01*
X1474728Y417598D01*
X1474643Y417499D01*
X1474558Y417387D01*
X1474460Y417232D01*
X1474361Y417048D01*
X1474276Y416837D01*
X1474262Y416823D01*
X1474248Y416752D01*
X1474206Y416640D01*
X1474192Y416569D01*
X1474164Y416470D01*
X1474121Y416372D01*
X1474093Y416245D01*
X1474051Y416104D01*
X1474009Y415935D01*
X1473966Y415765D01*
X1473910Y415568D01*
X1473853Y415343D01*
X1473797Y415103D01*
Y415089D01*
X1473783Y415047D01*
X1473769Y414976D01*
X1473741Y414892D01*
X1473713Y414779D01*
X1473684Y414652D01*
X1473600Y414370D01*
X1473501Y414060D01*
X1473402Y413736D01*
X1473304Y413454D01*
X1473247Y413327D01*
X1473191Y413214D01*
Y413200D01*
X1473177Y413186D01*
X1473121Y413101D01*
X1473050Y412974D01*
X1472937Y412833D01*
X1472810Y412664D01*
X1472655Y412495D01*
X1472472Y412326D01*
X1472275Y412185D01*
X1472247Y412171D01*
X1472176Y412128D01*
X1472063Y412072D01*
X1471922Y412016D01*
X1471739Y411959D01*
X1471528Y411903D01*
X1471302Y411861D01*
X1471062Y411847D01*
X1471048D01*
X1471034D01*
X1470992D01*
X1470936D01*
X1470795Y411875D01*
X1470611Y411903D01*
X1470400Y411945D01*
X1470160Y412016D01*
X1469921Y412114D01*
X1469681Y412255D01*
X1469667D01*
X1469653Y412269D01*
X1469568Y412340D01*
X1469455Y412439D01*
X1469314Y412565D01*
X1469159Y412735D01*
X1468990Y412946D01*
X1468835Y413200D01*
X1468694Y413482D01*
Y413496D01*
X1468680Y413524D01*
X1468666Y413566D01*
X1468638Y413623D01*
X1468609Y413693D01*
X1468581Y413792D01*
X1468525Y414003D01*
X1468468Y414271D01*
X1468412Y414581D01*
X1468370Y414906D01*
X1468356Y415272D01*
Y415455D01*
X1468370Y415554D01*
Y415653D01*
X1468398Y415921D01*
X1468440Y416217D01*
X1468511Y416527D01*
X1468595Y416865D01*
X1468708Y417175D01*
Y417189D01*
X1468722Y417217D01*
X1468750Y417260D01*
X1468779Y417316D01*
X1468849Y417457D01*
X1468976Y417640D01*
X1469117Y417852D01*
X1469300Y418063D01*
X1469512Y418261D01*
X1469751Y418444D01*
X1469765D01*
X1469780Y418458D01*
X1469822Y418486D01*
X1469864Y418514D01*
X1470005Y418585D01*
X1470188Y418670D01*
X1470414Y418768D01*
X1470682Y418839D01*
X1470964Y418909D01*
X1471274Y418937D01*
X1471373Y417697D01*
X1471358D01*
X1471330D01*
X1471288Y417683D01*
X1471217Y417669D01*
X1471062Y417626D01*
X1470851Y417570D01*
X1470625Y417485D01*
X1470400Y417358D01*
X1470188Y417203D01*
X1469991Y417006D01*
X1469977Y416978D01*
X1469921Y416907D01*
X1469836Y416766D01*
X1469751Y416583D01*
X1469667Y416343D01*
X1469582Y416062D01*
X1469526Y415709D01*
X1469512Y415314D01*
Y415117D01*
X1469526Y415032D01*
X1469540Y414920D01*
X1469568Y414666D01*
X1469624Y414384D01*
X1469695Y414102D01*
X1469808Y413834D01*
X1469878Y413721D01*
X1469949Y413609D01*
X1469963Y413581D01*
X1470019Y413524D01*
X1470118Y413439D01*
X1470231Y413355D01*
X1470386Y413256D01*
X1470555Y413172D01*
X1470752Y413115D01*
X1470978Y413087D01*
X1471006D01*
X1471062D01*
X1471161Y413101D01*
X1471274Y413129D01*
X1471415Y413172D01*
X1471556Y413242D01*
X1471697Y413327D01*
X1471838Y413454D01*
X1471852Y413468D01*
X1471894Y413538D01*
X1471936Y413595D01*
X1471965Y413651D01*
X1472007Y413736D01*
X1472063Y413834D01*
X1472106Y413961D01*
X1472162Y414102D01*
X1472218Y414257D01*
X1472289Y414440D01*
X1472345Y414638D01*
X1472416Y414863D01*
X1472472Y415117D01*
X1472543Y415399D01*
Y415413D01*
X1472557Y415470D01*
X1472571Y415554D01*
X1472599Y415653D01*
X1472627Y415780D01*
X1472669Y415935D01*
X1472712Y416090D01*
X1472754Y416259D01*
X1472853Y416625D01*
X1472951Y416978D01*
X1473008Y417147D01*
X1473064Y417302D01*
X1473106Y417443D01*
X1473163Y417556D01*
Y417570D01*
X1473177Y417598D01*
X1473205Y417640D01*
X1473233Y417697D01*
X1473318Y417852D01*
X1473431Y418035D01*
X1473586Y418247D01*
X1473755Y418458D01*
X1473952Y418655D01*
X1474164Y418825D01*
X1474192Y418839D01*
X1474262Y418895D01*
X1474389Y418951D01*
X1474558Y419036D01*
X1474756Y419106D01*
X1474995Y419177D01*
X1475263Y419219D01*
X1475545Y419233D01*
X1475559D01*
X1475573D01*
X1475616D01*
X1475672D01*
X1475827Y419205D01*
D02*
G37*
D10*
X1503750Y828650D02*
G03*
X1503750Y828650I-1250J0D01*
G01*
X1605250Y507500D02*
G03*
X1605250Y507500I-1250J0D01*
G01*
X1593830Y706120D02*
G03*
X1593830Y706120I-1250J0D01*
G01*
X1630750Y441500D02*
G03*
X1630750Y441500I-1250J0D01*
G01*
X1592250Y588500D02*
G03*
X1592250Y588500I-1250J0D01*
G01*
X1705950Y287000D02*
G03*
X1705950Y287000I-1250J0D01*
G01*
X1608250Y777550D02*
G03*
X1608250Y777550I-1250J0D01*
G01*
X1501270Y552680D02*
G03*
X1501270Y552680I-1270J0D01*
G01*
D11*
X1607500Y613000D02*
G03*
X1607500Y613000I-3000J0D01*
G01*
X1720500Y309750D02*
G03*
X1720500Y309750I-3000J0D01*
G01*
X1632500Y767000D02*
G03*
X1632500Y767000I-3000J0D01*
G01*
D12*
X1471750Y667750D02*
Y822650D01*
X1533250D01*
Y667750D02*
Y822650D01*
X1471750Y667750D02*
X1533250D01*
X1647500Y529000D02*
Y531000D01*
X1597500Y529000D02*
Y531000D01*
X1618000Y514000D02*
X1627000D01*
X1618000Y546000D02*
X1627000D01*
X1665860Y593200D02*
X1681860D01*
X1665860Y575200D02*
X1681860D01*
X1604500Y794500D02*
X1610500D01*
X1599500Y784500D02*
Y790500D01*
X1566500Y710000D02*
X1587500D01*
X1566500Y678500D02*
X1587500D01*
X1597000Y479000D02*
Y488000D01*
X1623000D01*
X1597000Y442000D02*
Y451000D01*
Y442000D02*
X1623000D01*
X1660500Y603000D02*
Y632000D01*
X1594500Y603000D02*
Y632000D01*
X1660500D01*
X1594500Y603000D02*
X1660500D01*
X1707500Y299750D02*
X1757500D01*
X1707500Y330250D02*
X1757500D01*
X1707500Y299750D02*
Y330250D01*
X1757500Y299750D02*
Y330250D01*
X1736200Y489840D02*
Y505840D01*
X1718200Y489840D02*
Y505840D01*
X1619500Y723000D02*
Y777000D01*
X1665500Y723000D02*
Y777000D01*
X1619500D02*
X1665500D01*
X1619500Y723000D02*
X1665500D01*
X1768200Y371120D02*
Y477120D01*
X1686200D02*
X1768200D01*
X1686200Y371120D02*
Y477120D01*
Y371120D02*
X1768200D01*
X1499500Y531000D02*
X1515500D01*
X1499500Y549000D02*
X1515500D01*
X1481500Y384000D02*
X1563500D01*
X1481500D02*
Y490000D01*
X1563500D01*
Y384000D02*
Y490000D01*
X1633220Y665020D02*
Y671020D01*
X1588600Y266140D02*
Y381140D01*
X1664300D01*
Y266140D02*
Y381140D01*
X1588600Y266140D02*
X1664300D01*
X1531800Y559200D02*
Y660800D01*
X1474600Y559200D02*
X1531800D01*
X1474600D02*
Y660800D01*
X1531800D01*
D13*
X1692720Y559960D02*
X1700720D01*
X1723200Y544820D02*
X1731200D01*
X1554000Y536000D02*
Y544000D01*
D14*
X1476376Y829944D02*
X1475107D01*
X1475742D01*
Y826770D01*
X1475107Y826136D01*
X1474472D01*
X1473837Y826770D01*
X1480185Y826136D02*
X1477646D01*
X1480185Y828675D01*
Y829310D01*
X1479550Y829944D01*
X1478281D01*
X1477646Y829310D01*
X1481455D02*
X1482090Y829944D01*
X1483359D01*
X1483994Y829310D01*
Y826770D01*
X1483359Y826136D01*
X1482090D01*
X1481455Y826770D01*
Y829310D01*
X1485264D02*
X1485898Y829944D01*
X1487168D01*
X1487803Y829310D01*
Y826770D01*
X1487168Y826136D01*
X1485898D01*
X1485264Y826770D01*
Y829310D01*
X1688466Y323216D02*
Y327024D01*
X1690370D01*
X1691005Y326390D01*
Y325120D01*
X1690370Y324485D01*
X1688466D01*
X1689736D02*
X1691005Y323216D01*
X1694814D02*
X1692275D01*
X1694814Y325755D01*
Y326390D01*
X1694179Y327024D01*
X1692910D01*
X1692275Y326390D01*
X1602741Y553084D02*
X1605280Y549276D01*
Y553084D02*
X1602741Y549276D01*
X1606550D02*
X1607819D01*
X1607184D01*
Y553084D01*
X1606550Y552450D01*
X1661160D02*
X1660525Y553084D01*
X1659256D01*
X1658621Y552450D01*
Y549910D01*
X1659256Y549276D01*
X1660525D01*
X1661160Y549910D01*
X1662430Y549276D02*
X1663699D01*
X1663064D01*
Y553084D01*
X1662430Y552450D01*
X1692276Y596264D02*
Y592456D01*
X1694181D01*
X1694816Y593090D01*
Y595630D01*
X1694181Y596264D01*
X1692276D01*
X1698624Y595630D02*
X1697990Y596264D01*
X1696720D01*
X1696085Y595630D01*
Y594995D01*
X1696720Y594360D01*
X1697990D01*
X1698624Y593725D01*
Y593090D01*
X1697990Y592456D01*
X1696720D01*
X1696085Y593090D01*
X1699894Y592456D02*
X1701164D01*
X1700529D01*
Y596264D01*
X1699894Y595630D01*
X1663066Y594996D02*
Y598804D01*
X1664970D01*
X1665605Y598170D01*
Y596900D01*
X1664970Y596265D01*
X1663066D01*
X1664336D02*
X1665605Y594996D01*
X1666875Y598170D02*
X1667510Y598804D01*
X1668779D01*
X1669414Y598170D01*
Y597535D01*
X1668779Y596900D01*
X1668144D01*
X1668779D01*
X1669414Y596265D01*
Y595630D01*
X1668779Y594996D01*
X1667510D01*
X1666875Y595630D01*
X1678941Y612776D02*
Y616584D01*
X1680845D01*
X1681480Y615950D01*
Y614680D01*
X1680845Y614045D01*
X1678941D01*
X1680210D02*
X1681480Y612776D01*
X1682750D02*
X1684019D01*
X1683384D01*
Y616584D01*
X1682750Y615950D01*
X1600837Y808356D02*
Y812164D01*
X1602742D01*
X1603376Y811530D01*
Y810260D01*
X1602742Y809625D01*
X1600837D01*
X1602107D02*
X1603376Y808356D01*
X1607185D02*
X1604646D01*
X1607185Y810895D01*
Y811530D01*
X1606550Y812164D01*
X1605281D01*
X1604646Y811530D01*
X1608455D02*
X1609090Y812164D01*
X1610359D01*
X1610994Y811530D01*
Y808990D01*
X1610359Y808356D01*
X1609090D01*
X1608455Y808990D01*
Y811530D01*
X1612264D02*
X1612898Y812164D01*
X1614168D01*
X1614803Y811530D01*
Y810895D01*
X1614168Y810260D01*
X1613533D01*
X1614168D01*
X1614803Y809625D01*
Y808990D01*
X1614168Y808356D01*
X1612898D01*
X1612264Y808990D01*
X1583057Y795656D02*
Y799464D01*
X1584962D01*
X1585596Y798830D01*
Y797560D01*
X1584962Y796925D01*
X1583057D01*
X1584327D02*
X1585596Y795656D01*
X1589405D02*
X1586866D01*
X1589405Y798195D01*
Y798830D01*
X1588770Y799464D01*
X1587501D01*
X1586866Y798830D01*
X1590675D02*
X1591310Y799464D01*
X1592579D01*
X1593214Y798830D01*
Y796290D01*
X1592579Y795656D01*
X1591310D01*
X1590675Y796290D01*
Y798830D01*
X1597023Y799464D02*
X1594484D01*
Y797560D01*
X1595753Y798195D01*
X1596388D01*
X1597023Y797560D01*
Y796290D01*
X1596388Y795656D01*
X1595118D01*
X1594484Y796290D01*
X1580516Y765810D02*
X1579882Y766444D01*
X1578612D01*
X1577977Y765810D01*
Y763270D01*
X1578612Y762636D01*
X1579882D01*
X1580516Y763270D01*
X1584325Y762636D02*
X1581786D01*
X1584325Y765175D01*
Y765810D01*
X1583690Y766444D01*
X1582421D01*
X1581786Y765810D01*
X1585595D02*
X1586230Y766444D01*
X1587499D01*
X1588134Y765810D01*
Y763270D01*
X1587499Y762636D01*
X1586230D01*
X1585595Y763270D01*
Y765810D01*
X1591943Y762636D02*
X1589404D01*
X1591943Y765175D01*
Y765810D01*
X1591308Y766444D01*
X1590038D01*
X1589404Y765810D01*
X1565277Y718184D02*
Y715010D01*
X1565912Y714376D01*
X1567182D01*
X1567816Y715010D01*
Y718184D01*
X1571625Y714376D02*
X1569086D01*
X1571625Y716915D01*
Y717550D01*
X1570990Y718184D01*
X1569721D01*
X1569086Y717550D01*
X1572895D02*
X1573530Y718184D01*
X1574799D01*
X1575434Y717550D01*
Y715010D01*
X1574799Y714376D01*
X1573530D01*
X1572895Y715010D01*
Y717550D01*
X1576704D02*
X1577338Y718184D01*
X1578608D01*
X1579243Y717550D01*
Y715010D01*
X1578608Y714376D01*
X1577338D01*
X1576704Y715010D01*
Y717550D01*
X1536659Y719920D02*
X1536109Y720471D01*
X1535009D01*
X1534458Y719920D01*
Y717720D01*
X1535009Y717169D01*
X1536109D01*
X1536659Y717720D01*
X1539960Y717169D02*
X1537759D01*
X1539960Y719370D01*
Y719920D01*
X1539410Y720471D01*
X1538309D01*
X1537759Y719920D01*
X1541060D02*
X1541610Y720471D01*
X1542711D01*
X1543261Y719920D01*
Y717720D01*
X1542711Y717169D01*
X1541610D01*
X1541060Y717720D01*
Y719920D01*
X1544361D02*
X1544911Y720471D01*
X1546012D01*
X1546562Y719920D01*
Y717720D01*
X1546012Y717169D01*
X1544911D01*
X1544361Y717720D01*
Y719920D01*
X1538479Y681820D02*
X1537929Y682371D01*
X1536829D01*
X1536279Y681820D01*
Y679620D01*
X1536829Y679070D01*
X1537929D01*
X1538479Y679620D01*
X1541780Y679070D02*
X1539579D01*
X1541780Y681270D01*
Y681820D01*
X1541230Y682371D01*
X1540130D01*
X1539579Y681820D01*
X1542880D02*
X1543430Y682371D01*
X1544531D01*
X1545081Y681820D01*
Y679620D01*
X1544531Y679070D01*
X1543430D01*
X1542880Y679620D01*
Y681820D01*
X1546181Y679070D02*
X1547282D01*
X1546731D01*
Y682371D01*
X1546181Y681820D01*
X1495044Y555752D02*
Y559561D01*
X1496948D01*
X1497583Y558926D01*
Y557656D01*
X1496948Y557022D01*
X1495044D01*
X1496314D02*
X1497583Y555752D01*
X1498853D02*
X1500122D01*
X1499488D01*
Y559561D01*
X1498853Y558926D01*
X1502027D02*
X1502662Y559561D01*
X1503931D01*
X1504566Y558926D01*
Y556387D01*
X1503931Y555752D01*
X1502662D01*
X1502027Y556387D01*
Y558926D01*
X1505836Y555752D02*
X1507105D01*
X1506470D01*
Y559561D01*
X1505836Y558926D01*
X1743035Y495936D02*
Y499744D01*
X1744939D01*
X1745574Y499110D01*
Y497840D01*
X1744939Y497205D01*
X1743035D01*
X1744304D02*
X1745574Y495936D01*
X1746843D02*
X1748113D01*
X1747478D01*
Y499744D01*
X1746843Y499110D01*
X1750017D02*
X1750652Y499744D01*
X1751922D01*
X1752557Y499110D01*
Y496570D01*
X1751922Y495936D01*
X1750652D01*
X1750017Y496570D01*
Y499110D01*
X1753826D02*
X1754461Y499744D01*
X1755731D01*
X1756365Y499110D01*
Y496570D01*
X1755731Y495936D01*
X1754461D01*
X1753826Y496570D01*
Y499110D01*
X1525524Y555751D02*
Y551942D01*
X1527428D01*
X1528063Y552577D01*
Y555116D01*
X1527428Y555751D01*
X1525524D01*
X1531872Y555116D02*
X1531237Y555751D01*
X1529968D01*
X1529333Y555116D01*
Y554481D01*
X1529968Y553846D01*
X1531237D01*
X1531872Y553212D01*
Y552577D01*
X1531237Y551942D01*
X1529968D01*
X1529333Y552577D01*
X1533142Y551942D02*
X1534411D01*
X1533776D01*
Y555751D01*
X1533142Y555116D01*
X1536315D02*
X1536950Y555751D01*
X1538220D01*
X1538855Y555116D01*
Y552577D01*
X1538220Y551942D01*
X1536950D01*
X1536315Y552577D01*
Y555116D01*
X1540124Y551942D02*
X1541394D01*
X1540759D01*
Y555751D01*
X1540124Y555116D01*
X1741130Y530224D02*
Y526416D01*
X1743035D01*
X1743669Y527050D01*
Y529590D01*
X1743035Y530224D01*
X1741130D01*
X1747478Y529590D02*
X1746843Y530224D01*
X1745574D01*
X1744939Y529590D01*
Y528955D01*
X1745574Y528320D01*
X1746843D01*
X1747478Y527685D01*
Y527050D01*
X1746843Y526416D01*
X1745574D01*
X1744939Y527050D01*
X1748748Y526416D02*
X1750017D01*
X1749383D01*
Y530224D01*
X1748748Y529590D01*
X1751922D02*
X1752557Y530224D01*
X1753826D01*
X1754461Y529590D01*
Y527050D01*
X1753826Y526416D01*
X1752557D01*
X1751922Y527050D01*
Y529590D01*
X1755731D02*
X1756365Y530224D01*
X1757635D01*
X1758270Y529590D01*
Y527050D01*
X1757635Y526416D01*
X1756365D01*
X1755731Y527050D01*
Y529590D01*
X1475739Y500887D02*
X1474470D01*
X1475104D01*
Y497713D01*
X1474470Y497078D01*
X1473835D01*
X1473200Y497713D01*
X1477009Y497078D02*
X1478278D01*
X1477644D01*
Y500887D01*
X1477009Y500252D01*
X1480183D02*
X1480818Y500887D01*
X1482087D01*
X1482722Y500252D01*
Y497713D01*
X1482087Y497078D01*
X1480818D01*
X1480183Y497713D01*
Y500252D01*
X1483992D02*
X1484626Y500887D01*
X1485896D01*
X1486531Y500252D01*
Y497713D01*
X1485896Y497078D01*
X1484626D01*
X1483992Y497713D01*
Y500252D01*
X1688337Y487933D02*
X1687068D01*
X1687702D01*
Y484759D01*
X1687068Y484124D01*
X1686433D01*
X1685798Y484759D01*
X1692146Y484124D02*
X1689607D01*
X1692146Y486663D01*
Y487298D01*
X1691511Y487933D01*
X1690242D01*
X1689607Y487298D01*
X1636152Y786904D02*
Y783730D01*
X1636787Y783096D01*
X1638056D01*
X1638691Y783730D01*
Y786904D01*
X1642500Y783096D02*
X1639961D01*
X1642500Y785635D01*
Y786270D01*
X1641865Y786904D01*
X1640596D01*
X1639961Y786270D01*
X1643770D02*
X1644404Y786904D01*
X1645674D01*
X1646309Y786270D01*
Y783730D01*
X1645674Y783096D01*
X1644404D01*
X1643770Y783730D01*
Y786270D01*
X1647578Y783096D02*
X1648848D01*
X1648213D01*
Y786904D01*
X1647578Y786270D01*
X1600835Y496904D02*
Y493730D01*
X1601469Y493096D01*
X1602739D01*
X1603374Y493730D01*
Y496904D01*
X1604643Y493096D02*
X1605913D01*
X1605278D01*
Y496904D01*
X1604643Y496270D01*
X1607817D02*
X1608452Y496904D01*
X1609722D01*
X1610357Y496270D01*
Y493730D01*
X1609722Y493096D01*
X1608452D01*
X1607817Y493730D01*
Y496270D01*
X1611626D02*
X1612261Y496904D01*
X1613531D01*
X1614165Y496270D01*
Y493730D01*
X1613531Y493096D01*
X1612261D01*
X1611626Y493730D01*
Y496270D01*
X1584961Y656904D02*
Y653730D01*
X1585596Y653096D01*
X1586865D01*
X1587500Y653730D01*
Y656904D01*
X1588770Y653096D02*
X1590039D01*
X1589404D01*
Y656904D01*
X1588770Y656270D01*
X1623017Y703096D02*
Y706904D01*
X1624922D01*
X1625556Y706270D01*
Y705000D01*
X1624922Y704365D01*
X1623017D01*
X1624287D02*
X1625556Y703096D01*
X1629365D02*
X1626826D01*
X1629365Y705635D01*
Y706270D01*
X1628730Y706904D01*
X1627461D01*
X1626826Y706270D01*
X1630635D02*
X1631270Y706904D01*
X1632539D01*
X1633174Y706270D01*
Y703730D01*
X1632539Y703096D01*
X1631270D01*
X1630635Y703730D01*
Y706270D01*
X1636983Y706904D02*
X1635713Y706270D01*
X1634444Y705000D01*
Y703730D01*
X1635078Y703096D01*
X1636348D01*
X1636983Y703730D01*
Y704365D01*
X1636348Y705000D01*
X1634444D01*
X1685517Y697596D02*
Y701404D01*
X1687422D01*
X1688056Y700770D01*
Y699500D01*
X1687422Y698865D01*
X1685517D01*
X1686787D02*
X1688056Y697596D01*
X1691865D02*
X1689326D01*
X1691865Y700135D01*
Y700770D01*
X1691230Y701404D01*
X1689961D01*
X1689326Y700770D01*
X1693135D02*
X1693770Y701404D01*
X1695039D01*
X1695674Y700770D01*
Y698230D01*
X1695039Y697596D01*
X1693770D01*
X1693135Y698230D01*
Y700770D01*
X1698848Y697596D02*
Y701404D01*
X1696944Y699500D01*
X1699483D01*
X1555117Y650876D02*
Y654684D01*
X1557022D01*
X1557656Y654050D01*
Y652780D01*
X1557022Y652145D01*
X1555117D01*
X1556387D02*
X1557656Y650876D01*
X1561465D02*
X1558926D01*
X1561465Y653415D01*
Y654050D01*
X1560830Y654684D01*
X1559561D01*
X1558926Y654050D01*
X1562735D02*
X1563370Y654684D01*
X1564639D01*
X1565274Y654050D01*
Y651510D01*
X1564639Y650876D01*
X1563370D01*
X1562735Y651510D01*
Y654050D01*
X1569083Y650876D02*
X1566544D01*
X1569083Y653415D01*
Y654050D01*
X1568448Y654684D01*
X1567178D01*
X1566544Y654050D01*
X1623652Y688096D02*
Y691904D01*
X1625556D01*
X1626191Y691270D01*
Y690000D01*
X1625556Y689365D01*
X1623652D01*
X1624922D02*
X1626191Y688096D01*
X1630000D02*
X1627461D01*
X1630000Y690635D01*
Y691270D01*
X1629365Y691904D01*
X1628096D01*
X1627461Y691270D01*
X1631270D02*
X1631904Y691904D01*
X1633174D01*
X1633809Y691270D01*
Y688730D01*
X1633174Y688096D01*
X1631904D01*
X1631270Y688730D01*
Y691270D01*
X1635078Y688096D02*
X1636348D01*
X1635713D01*
Y691904D01*
X1635078Y691270D01*
X1623017Y675596D02*
Y679404D01*
X1624922D01*
X1625556Y678770D01*
Y677500D01*
X1624922Y676865D01*
X1623017D01*
X1624287D02*
X1625556Y675596D01*
X1629365D02*
X1626826D01*
X1629365Y678135D01*
Y678770D01*
X1628730Y679404D01*
X1627461D01*
X1626826Y678770D01*
X1630635D02*
X1631270Y679404D01*
X1632539D01*
X1633174Y678770D01*
Y676230D01*
X1632539Y675596D01*
X1631270D01*
X1630635Y676230D01*
Y678770D01*
X1634444D02*
X1635078Y679404D01*
X1636348D01*
X1636983Y678770D01*
Y676230D01*
X1636348Y675596D01*
X1635078D01*
X1634444Y676230D01*
Y678770D01*
X1765000Y313730D02*
Y316270D01*
X1764365Y316904D01*
X1763096D01*
X1762461Y316270D01*
Y313730D01*
X1763096Y313096D01*
X1764365D01*
X1763730Y314365D02*
X1765000Y313096D01*
X1764365D02*
X1765000Y313730D01*
X1766270Y313096D02*
X1767539D01*
X1766904D01*
Y316904D01*
X1766270Y316270D01*
X1624569Y393736D02*
Y397544D01*
X1626474D01*
X1627109Y396910D01*
Y395640D01*
X1626474Y395005D01*
X1624569D01*
X1628378Y393736D02*
X1629648D01*
X1629013D01*
Y397544D01*
X1628378Y396910D01*
X1631552D02*
X1632187Y397544D01*
X1633457D01*
X1634091Y396910D01*
Y394370D01*
X1633457Y393736D01*
X1632187D01*
X1631552Y394370D01*
Y396910D01*
X1635361Y393736D02*
X1636631D01*
X1635996D01*
Y397544D01*
X1635361Y396910D01*
X1476755Y671575D02*
X1475486D01*
X1476120D01*
Y668401D01*
X1475486Y667766D01*
X1474851D01*
X1474216Y668401D01*
X1478025Y667766D02*
X1479294D01*
X1478660D01*
Y671575D01*
X1478025Y670940D01*
X1570874Y478770D02*
X1570239Y479404D01*
X1568969D01*
X1568335Y478770D01*
Y476230D01*
X1568969Y475596D01*
X1570239D01*
X1570874Y476230D01*
X1572143Y475596D02*
X1573413D01*
X1572778D01*
Y479404D01*
X1572143Y478770D01*
X1575317D02*
X1575952Y479404D01*
X1577222D01*
X1577857Y478770D01*
Y476230D01*
X1577222Y475596D01*
X1575952D01*
X1575317Y476230D01*
Y478770D01*
X1581665Y475596D02*
X1579126D01*
X1581665Y478135D01*
Y478770D01*
X1581031Y479404D01*
X1579761D01*
X1579126Y478770D01*
X1664009Y458770D02*
X1663374Y459404D01*
X1662104D01*
X1661469Y458770D01*
Y456230D01*
X1662104Y455596D01*
X1663374D01*
X1664009Y456230D01*
X1665278Y455596D02*
X1666548D01*
X1665913D01*
Y459404D01*
X1665278Y458770D01*
X1668452D02*
X1669087Y459404D01*
X1670357D01*
X1670991Y458770D01*
Y456230D01*
X1670357Y455596D01*
X1669087D01*
X1668452Y456230D01*
Y458770D01*
X1672261Y455596D02*
X1673531D01*
X1672896D01*
Y459404D01*
X1672261Y458770D01*
X1650874Y493770D02*
X1650239Y494404D01*
X1648969D01*
X1648335Y493770D01*
Y491230D01*
X1648969Y490596D01*
X1650239D01*
X1650874Y491230D01*
X1652143Y490596D02*
X1653413D01*
X1652778D01*
Y494404D01*
X1652143Y493770D01*
X1655317D02*
X1655952Y494404D01*
X1657222D01*
X1657857Y493770D01*
Y491230D01*
X1657222Y490596D01*
X1655952D01*
X1655317Y491230D01*
Y493770D01*
X1659126D02*
X1659761Y494404D01*
X1661031D01*
X1661665Y493770D01*
Y491230D01*
X1661031Y490596D01*
X1659761D01*
X1659126Y491230D01*
Y493770D01*
X1569085Y527050D02*
X1568450Y527684D01*
X1567181D01*
X1566546Y527050D01*
Y524510D01*
X1567181Y523876D01*
X1568450D01*
X1569085Y524510D01*
X1572259Y523876D02*
Y527684D01*
X1570355Y525780D01*
X1572894D01*
X1630045Y557530D02*
X1629410Y558164D01*
X1628141D01*
X1627506Y557530D01*
Y554990D01*
X1628141Y554356D01*
X1629410D01*
X1630045Y554990D01*
X1631315Y557530D02*
X1631950Y558164D01*
X1633219D01*
X1633854Y557530D01*
Y556895D01*
X1633219Y556260D01*
X1632584D01*
X1633219D01*
X1633854Y555625D01*
Y554990D01*
X1633219Y554356D01*
X1631950D01*
X1631315Y554990D01*
X1649095Y669290D02*
X1648460Y669924D01*
X1647191D01*
X1646556Y669290D01*
Y666750D01*
X1647191Y666116D01*
X1648460D01*
X1649095Y666750D01*
X1652904Y666116D02*
X1650365D01*
X1652904Y668655D01*
Y669290D01*
X1652269Y669924D01*
X1651000D01*
X1650365Y669290D01*
D15*
X1673860Y403860D02*
X1684017D01*
X1673860Y454658D02*
X1684017D01*
X1678938Y459736D02*
Y449579D01*
X1607820Y383538D02*
X1617977D01*
X1612898Y388617D02*
Y378460D01*
X1633220Y383540D02*
X1643377D01*
M02*
