G04*
G04 #@! TF.GenerationSoftware,Altium Limited,Altium Designer,25.7.1 (20)*
G04*
G04 Layer_Color=8388736*
%FSLAX44Y44*%
%MOMM*%
G71*
G04*
G04 #@! TF.SameCoordinates,265DE244-54D5-4CCD-A973-AF3357FD315F*
G04*
G04*
G04 #@! TF.FilePolarity,Negative*
G04*
G01*
G75*
%ADD20R,0.7500X1.0000*%
%ADD24R,0.5000X0.3500*%
%ADD35R,1.0000X0.7500*%
%ADD37R,0.8500X1.0500*%
%ADD38R,2.1500X1.3500*%
%ADD39R,1.1000X1.0000*%
%ADD40R,0.9500X0.9500*%
G04:AMPARAMS|DCode=41|XSize=0.91mm|YSize=0.8104mm|CornerRadius=0.1576mm|HoleSize=0mm|Usage=FLASHONLY|Rotation=180.000|XOffset=0mm|YOffset=0mm|HoleType=Round|Shape=RoundedRectangle|*
%AMROUNDEDRECTD41*
21,1,0.9100,0.4953,0,0,180.0*
21,1,0.5949,0.8104,0,0,180.0*
1,1,0.3151,-0.2975,0.2477*
1,1,0.3151,0.2975,0.2477*
1,1,0.3151,0.2975,-0.2477*
1,1,0.3151,-0.2975,-0.2477*
%
%ADD41ROUNDEDRECTD41*%
G04:AMPARAMS|DCode=42|XSize=0.91mm|YSize=0.8104mm|CornerRadius=0.1576mm|HoleSize=0mm|Usage=FLASHONLY|Rotation=270.000|XOffset=0mm|YOffset=0mm|HoleType=Round|Shape=RoundedRectangle|*
%AMROUNDEDRECTD42*
21,1,0.9100,0.4953,0,0,270.0*
21,1,0.5949,0.8104,0,0,270.0*
1,1,0.3151,-0.2477,-0.2975*
1,1,0.3151,-0.2477,0.2975*
1,1,0.3151,0.2477,0.2975*
1,1,0.3151,0.2477,-0.2975*
%
%ADD42ROUNDEDRECTD42*%
%ADD43R,1.1000X1.1000*%
%ADD44R,1.1500X1.0500*%
%ADD45R,1.1000X1.1000*%
%ADD46O,0.5000X2.2500*%
%ADD47R,0.8000X1.9000*%
%ADD48R,1.0500X1.1500*%
%ADD49R,1.7500X0.7500*%
%ADD50O,1.8500X0.7500*%
%ADD51R,0.9500X0.9500*%
G04:AMPARAMS|DCode=52|XSize=2.15mm|YSize=3.55mm|CornerRadius=0mm|HoleSize=0mm|Usage=FLASHONLY|Rotation=270.000|XOffset=0mm|YOffset=0mm|HoleType=Round|Shape=Octagon|*
%AMOCTAGOND52*
4,1,8,1.7750,0.5375,1.7750,-0.5375,1.2375,-1.0750,-1.2375,-1.0750,-1.7750,-0.5375,-1.7750,0.5375,-1.2375,1.0750,1.2375,1.0750,1.7750,0.5375,0.0*
%
%ADD52OCTAGOND52*%

%ADD53R,2.1500X0.8500*%
%ADD54R,1.2000X1.0500*%
%ADD55R,1.8400X1.8400*%
%ADD56C,1.8400*%
%ADD57C,1.5500*%
%ADD58C,1.9500*%
%ADD59R,1.9500X1.9500*%
%ADD60C,1.7500*%
%ADD61R,1.7500X1.7500*%
%ADD62R,1.5500X1.5500*%
%ADD63C,0.7500*%
D20*
X1666360Y584200D02*
D03*
X1681360D02*
D03*
X1500000Y540000D02*
D03*
X1515000D02*
D03*
D24*
X1585000Y691000D02*
D03*
X1569000Y684500D02*
D03*
X1585000D02*
D03*
X1569000Y691000D02*
D03*
Y704000D02*
D03*
Y697500D02*
D03*
X1585000Y704000D02*
D03*
Y697500D02*
D03*
D35*
X1727200Y505340D02*
D03*
Y490340D02*
D03*
D37*
X1686000Y315000D02*
D03*
X1700000D02*
D03*
X1677640Y604520D02*
D03*
X1691640D02*
D03*
X1600500Y705000D02*
D03*
X1555100Y662940D02*
D03*
X1614500Y705000D02*
D03*
Y690000D02*
D03*
Y677500D02*
D03*
X1600500D02*
D03*
X1569100Y662940D02*
D03*
X1600500Y690000D02*
D03*
D38*
X1641000Y541000D02*
D03*
X1604000Y519000D02*
D03*
Y541000D02*
D03*
X1641000Y519000D02*
D03*
D39*
X1662500Y541750D02*
D03*
Y528250D02*
D03*
X1582500Y531750D02*
D03*
Y518250D02*
D03*
D40*
X1696720Y583960D02*
D03*
Y568960D02*
D03*
X1727200Y535820D02*
D03*
Y520820D02*
D03*
D41*
X1607500Y787500D02*
D03*
Y801500D02*
D03*
D42*
X1606500Y787500D02*
D03*
X1592500D02*
D03*
X1640220Y668020D02*
D03*
X1626220D02*
D03*
D43*
X1584960Y751640D02*
D03*
Y739140D02*
D03*
X1554480Y692050D02*
D03*
Y679550D02*
D03*
D44*
Y705320D02*
D03*
Y718820D02*
D03*
X1652500Y450750D02*
D03*
X1572500D02*
D03*
X1652500Y464250D02*
D03*
X1572500D02*
D03*
D45*
X1637500Y567500D02*
D03*
X1625000D02*
D03*
D46*
X1630750Y646500D02*
D03*
X1598250Y588500D02*
D03*
X1624250Y646500D02*
D03*
Y588500D02*
D03*
X1617750Y646500D02*
D03*
X1656750D02*
D03*
X1650250D02*
D03*
X1643750D02*
D03*
X1637250D02*
D03*
X1611250D02*
D03*
X1604750D02*
D03*
X1598250D02*
D03*
X1656750Y588500D02*
D03*
X1650250D02*
D03*
X1643750D02*
D03*
X1637250D02*
D03*
X1630750D02*
D03*
X1617750D02*
D03*
X1611250D02*
D03*
X1604750D02*
D03*
D47*
X1738850Y287000D02*
D03*
X1726150D02*
D03*
X1713450D02*
D03*
X1751550D02*
D03*
X1713450Y343000D02*
D03*
X1726150D02*
D03*
X1738850D02*
D03*
X1751550D02*
D03*
D48*
X1665000Y480000D02*
D03*
X1651500D02*
D03*
D49*
X1630000Y450000D02*
D03*
Y480000D02*
D03*
D50*
X1607000Y730950D02*
D03*
X1678000Y756350D02*
D03*
Y769050D02*
D03*
X1607000Y743650D02*
D03*
Y769050D02*
D03*
Y756350D02*
D03*
X1678000Y743650D02*
D03*
Y730950D02*
D03*
D51*
X1545000Y540000D02*
D03*
X1530000D02*
D03*
D52*
X1601000Y465000D02*
D03*
D53*
X1628000D02*
D03*
D54*
X1672500Y690500D02*
D03*
Y704500D02*
D03*
D55*
X1502500Y808700D02*
D03*
D56*
Y783300D02*
D03*
Y757900D02*
D03*
Y732500D02*
D03*
Y707100D02*
D03*
Y681700D02*
D03*
D57*
X1638100Y358140D02*
D03*
D58*
X1500000Y648100D02*
D03*
Y622700D02*
D03*
Y597300D02*
D03*
D59*
Y571900D02*
D03*
D60*
X1727200Y452120D02*
D03*
X1522500Y465000D02*
D03*
D61*
X1727200Y402120D02*
D03*
X1522500Y415000D02*
D03*
D62*
X1613100Y358140D02*
D03*
D63*
X1554480Y731520D02*
D03*
X1518920Y711200D02*
D03*
X1666240Y464820D02*
D03*
X1595120Y716280D02*
D03*
X1686560Y568960D02*
D03*
X1651000Y566420D02*
D03*
X1741500Y535000D02*
D03*
X1635760Y678180D02*
D03*
X1633220Y713740D02*
D03*
X1738630Y271780D02*
D03*
X1713230D02*
D03*
X1725930D02*
D03*
X1661160Y515620D02*
D03*
X1652500Y440000D02*
D03*
X1620520Y802640D02*
D03*
X1584960Y718820D02*
D03*
Y581660D02*
D03*
X1582420Y543560D02*
D03*
X1572500Y437500D02*
D03*
X1544320Y662940D02*
D03*
X1546860Y528320D02*
D03*
X1706880Y617220D02*
D03*
X1645920Y690880D02*
D03*
X1623060Y627380D02*
D03*
X1579880Y662940D02*
D03*
X1681480Y396240D02*
D03*
X1663700Y566420D02*
D03*
X1612900Y627380D02*
D03*
M02*
