G04*
G04 #@! TF.GenerationSoftware,Altium Limited,Altium Designer,25.7.1 (20)*
G04*
G04 Layer_Color=32768*
%FSLAX44Y44*%
%MOMM*%
G71*
G04*
G04 #@! TF.SameCoordinates,265DE244-54D5-4CCD-A973-AF3357FD315F*
G04*
G04*
G04 #@! TF.FilePolarity,Positive*
G04*
G01*
G75*
%ADD12C,0.2000*%
%ADD78C,0.0500*%
D12*
X1470750Y666750D02*
Y823650D01*
X1534250D01*
Y666750D02*
Y823650D01*
X1470750Y666750D02*
X1534250D01*
X1661610Y590200D02*
X1686110D01*
Y578200D02*
Y590200D01*
X1661610Y578200D02*
X1686110D01*
X1661610D02*
Y590200D01*
X1561500Y712250D02*
X1592500D01*
Y676250D02*
Y712250D01*
X1561500Y676250D02*
X1592500D01*
X1561500D02*
Y712250D01*
X1721200Y485590D02*
X1733200D01*
Y510090D01*
X1721200D02*
X1733200D01*
X1721200Y485590D02*
Y510090D01*
X1495250Y534000D02*
Y546000D01*
Y534000D02*
X1519750D01*
Y546000D01*
X1495250D02*
X1519750D01*
D78*
X1601500Y782500D02*
X1613500D01*
X1601500Y806500D02*
X1613500D01*
X1601500Y782500D02*
Y806500D01*
X1613500Y782500D02*
Y806500D01*
X1607500Y789750D02*
Y799250D01*
X1602750Y794500D02*
X1612250D01*
X1611500Y781500D02*
Y793500D01*
X1587500Y781500D02*
Y793500D01*
Y781500D02*
X1611500D01*
X1587500Y793500D02*
X1611500D01*
X1594750Y787500D02*
X1604250D01*
X1599500Y782750D02*
Y792250D01*
X1621220Y662020D02*
Y674020D01*
X1645220Y662020D02*
Y674020D01*
X1621220D02*
X1645220D01*
X1621220Y662020D02*
X1645220D01*
X1628470Y668020D02*
X1637970D01*
X1633220Y663270D02*
Y672770D01*
M02*
