G04*
G04 #@! TF.GenerationSoftware,Altium Limited,Altium Designer,25.7.1 (20)*
G04*
G04 Layer_Color=8421504*
%FSLAX44Y44*%
%MOMM*%
G71*
G04*
G04 #@! TF.SameCoordinates,265DE244-54D5-4CCD-A973-AF3357FD315F*
G04*
G04*
G04 #@! TF.FilePolarity,Positive*
G04*
G01*
G75*
%ADD16R,0.7000X0.9000*%
%ADD17R,2.0000X1.2000*%
%ADD18R,0.9500X0.8500*%
%ADD19R,0.8000X0.8000*%
%ADD20R,0.7500X1.0000*%
G04:AMPARAMS|DCode=21|XSize=0.76mm|YSize=0.6604mm|CornerRadius=0.0825mm|HoleSize=0mm|Usage=FLASHONLY|Rotation=180.000|XOffset=0mm|YOffset=0mm|HoleType=Round|Shape=RoundedRectangle|*
%AMROUNDEDRECTD21*
21,1,0.7600,0.4953,0,0,180.0*
21,1,0.5949,0.6604,0,0,180.0*
1,1,0.1651,-0.2975,0.2477*
1,1,0.1651,0.2975,0.2477*
1,1,0.1651,0.2975,-0.2477*
1,1,0.1651,-0.2975,-0.2477*
%
%ADD21ROUNDEDRECTD21*%
G04:AMPARAMS|DCode=22|XSize=0.76mm|YSize=0.6604mm|CornerRadius=0.0825mm|HoleSize=0mm|Usage=FLASHONLY|Rotation=270.000|XOffset=0mm|YOffset=0mm|HoleType=Round|Shape=RoundedRectangle|*
%AMROUNDEDRECTD22*
21,1,0.7600,0.4953,0,0,270.0*
21,1,0.5949,0.6604,0,0,270.0*
1,1,0.1651,-0.2477,-0.2975*
1,1,0.1651,-0.2477,0.2975*
1,1,0.1651,0.2477,0.2975*
1,1,0.1651,0.2477,-0.2975*
%
%ADD22ROUNDEDRECTD22*%
%ADD23R,0.9500X0.9500*%
%ADD24R,0.5000X0.3500*%
%ADD25R,1.0000X0.9000*%
%ADD26R,0.9500X0.9500*%
%ADD27O,0.3500X2.1000*%
%ADD28R,0.6500X1.7500*%
%ADD29R,0.9000X1.0000*%
%ADD30R,1.6000X0.6000*%
%ADD31O,1.7000X0.6000*%
%ADD32R,0.8000X0.8000*%
G04:AMPARAMS|DCode=33|XSize=2mm|YSize=3.4mm|CornerRadius=0mm|HoleSize=0mm|Usage=FLASHONLY|Rotation=270.000|XOffset=0mm|YOffset=0mm|HoleType=Round|Shape=Octagon|*
%AMOCTAGOND33*
4,1,8,1.7000,0.5000,1.7000,-0.5000,1.2000,-1.0000,-1.2000,-1.0000,-1.7000,-0.5000,-1.7000,0.5000,-1.2000,1.0000,1.2000,1.0000,1.7000,0.5000,0.0*
%
%ADD33OCTAGOND33*%

%ADD34R,2.0000X0.7000*%
%ADD35R,1.0000X0.7500*%
%ADD36R,1.0500X0.9000*%
D16*
X1686000Y315000D02*
D03*
X1700000D02*
D03*
X1677640Y604520D02*
D03*
X1691640D02*
D03*
X1600500Y705000D02*
D03*
X1555100Y662940D02*
D03*
X1614500Y705000D02*
D03*
Y690000D02*
D03*
Y677500D02*
D03*
X1600500D02*
D03*
X1569100Y662940D02*
D03*
X1600500Y690000D02*
D03*
D17*
X1641000Y541000D02*
D03*
X1604000Y519000D02*
D03*
Y541000D02*
D03*
X1641000Y519000D02*
D03*
D18*
X1662500Y541750D02*
D03*
Y528250D02*
D03*
X1582500Y531750D02*
D03*
Y518250D02*
D03*
D19*
X1696720Y583960D02*
D03*
Y568960D02*
D03*
X1727200Y535820D02*
D03*
Y520820D02*
D03*
D20*
X1666360Y584200D02*
D03*
X1681360D02*
D03*
X1500000Y540000D02*
D03*
X1515000D02*
D03*
D21*
X1607500Y787500D02*
D03*
Y801500D02*
D03*
D22*
X1606500Y787500D02*
D03*
X1592500D02*
D03*
X1640220Y668020D02*
D03*
X1626220D02*
D03*
D23*
X1584960Y751640D02*
D03*
Y739140D02*
D03*
X1554480Y692050D02*
D03*
Y679550D02*
D03*
D24*
X1585000Y691000D02*
D03*
X1569000Y684500D02*
D03*
X1585000D02*
D03*
X1569000Y691000D02*
D03*
Y704000D02*
D03*
Y697500D02*
D03*
X1585000Y704000D02*
D03*
Y697500D02*
D03*
D25*
X1554480Y705320D02*
D03*
Y718820D02*
D03*
X1652500Y450750D02*
D03*
X1572500D02*
D03*
X1652500Y464250D02*
D03*
X1572500D02*
D03*
D26*
X1637500Y567500D02*
D03*
X1625000D02*
D03*
D27*
X1630750Y646500D02*
D03*
X1598250Y588500D02*
D03*
X1624250Y646500D02*
D03*
Y588500D02*
D03*
X1617750Y646500D02*
D03*
X1656750D02*
D03*
X1650250D02*
D03*
X1643750D02*
D03*
X1637250D02*
D03*
X1611250D02*
D03*
X1604750D02*
D03*
X1598250D02*
D03*
X1656750Y588500D02*
D03*
X1650250D02*
D03*
X1643750D02*
D03*
X1637250D02*
D03*
X1630750D02*
D03*
X1617750D02*
D03*
X1611250D02*
D03*
X1604750D02*
D03*
D28*
X1738850Y287000D02*
D03*
X1726150D02*
D03*
X1713450D02*
D03*
X1751550D02*
D03*
X1713450Y343000D02*
D03*
X1726150D02*
D03*
X1738850D02*
D03*
X1751550D02*
D03*
D29*
X1665000Y480000D02*
D03*
X1651500D02*
D03*
D30*
X1630000Y450000D02*
D03*
Y480000D02*
D03*
D31*
X1607000Y730950D02*
D03*
X1678000Y756350D02*
D03*
Y769050D02*
D03*
X1607000Y743650D02*
D03*
Y769050D02*
D03*
Y756350D02*
D03*
X1678000Y743650D02*
D03*
Y730950D02*
D03*
D32*
X1545000Y540000D02*
D03*
X1530000D02*
D03*
D33*
X1601000Y465000D02*
D03*
D34*
X1628000D02*
D03*
D35*
X1727200Y505340D02*
D03*
Y490340D02*
D03*
D36*
X1672500Y690500D02*
D03*
Y704500D02*
D03*
M02*
